<mxfile host="app.diagrams.net" modified="2024-02-19T19:24:23.683Z" agent="Mozilla/5.0 (X11; Linux x86_64) AppleWebKit/537.36 (KHTML, like Gecko) Chrome/121.0.0.0 Safari/537.36" etag="QWGdkxuyAZBytvelJyEJ" version="23.1.5" type="device" pages="2">
  <diagram name="Page-1" id="2kw0PxaDV9IrxXmn_11u">
    <mxGraphModel dx="1364" dy="767" grid="1" gridSize="10" guides="1" tooltips="1" connect="1" arrows="1" fold="1" page="1" pageScale="1" pageWidth="850" pageHeight="1100" math="1" shadow="0">
      <root>
        <mxCell id="0" />
        <mxCell id="1" parent="0" />
        <mxCell id="euGdgTzVvTfS2aF6soQ5-9" value="" style="endArrow=none;html=1;rounded=0;strokeWidth=6;fillColor=#d80073;strokeColor=#FF6666;" parent="1" edge="1">
          <mxGeometry width="50" height="50" relative="1" as="geometry">
            <mxPoint x="560" y="650" as="sourcePoint" />
            <mxPoint x="560" y="490" as="targetPoint" />
          </mxGeometry>
        </mxCell>
        <mxCell id="euGdgTzVvTfS2aF6soQ5-10" value="" style="endArrow=none;html=1;rounded=0;editable=1;movable=1;resizable=1;rotatable=1;deletable=1;locked=0;connectable=1;strokeWidth=6;fillColor=#d80073;strokeColor=#FF6666;" parent="1" edge="1">
          <mxGeometry width="50" height="50" relative="1" as="geometry">
            <mxPoint x="280" y="650" as="sourcePoint" />
            <mxPoint x="280" y="490" as="targetPoint" />
          </mxGeometry>
        </mxCell>
        <mxCell id="euGdgTzVvTfS2aF6soQ5-13" value="" style="endArrow=none;html=1;rounded=0;editable=1;movable=1;resizable=1;rotatable=1;deletable=1;locked=0;connectable=1;strokeWidth=6;fillColor=#d80073;strokeColor=#FF6666;" parent="1" edge="1">
          <mxGeometry width="50" height="50" relative="1" as="geometry">
            <mxPoint x="420" y="730" as="sourcePoint" />
            <mxPoint x="280" y="650" as="targetPoint" />
          </mxGeometry>
        </mxCell>
        <mxCell id="euGdgTzVvTfS2aF6soQ5-14" value="" style="endArrow=none;html=1;rounded=0;editable=1;movable=1;resizable=1;rotatable=1;deletable=1;locked=0;connectable=1;orthogonal=0;strokeWidth=6;fillColor=#d80073;strokeColor=#FF6666;" parent="1" edge="1">
          <mxGeometry width="50" height="50" relative="1" as="geometry">
            <mxPoint x="280" y="490" as="sourcePoint" />
            <mxPoint x="420" y="410" as="targetPoint" />
          </mxGeometry>
        </mxCell>
        <mxCell id="euGdgTzVvTfS2aF6soQ5-16" value="" style="endArrow=none;html=1;rounded=0;editable=1;movable=1;resizable=1;rotatable=1;deletable=1;locked=0;connectable=1;strokeWidth=6;fillColor=#d80073;strokeColor=#FF6666;" parent="1" edge="1">
          <mxGeometry width="50" height="50" relative="1" as="geometry">
            <mxPoint x="420" y="410" as="sourcePoint" />
            <mxPoint x="560" y="490" as="targetPoint" />
          </mxGeometry>
        </mxCell>
        <mxCell id="euGdgTzVvTfS2aF6soQ5-19" value="" style="endArrow=none;html=1;rounded=0;orthogonal=0;fillColor=#1ba1e2;strokeColor=#006EAF;" parent="1" edge="1">
          <mxGeometry width="50" height="50" relative="1" as="geometry">
            <mxPoint x="370" y="490.5" as="sourcePoint" />
            <mxPoint x="330" y="410.5" as="targetPoint" />
          </mxGeometry>
        </mxCell>
        <mxCell id="euGdgTzVvTfS2aF6soQ5-24" value="" style="endArrow=none;html=1;rounded=0;orthogonal=0;fillColor=#1ba1e2;strokeColor=#006EAF;" parent="1" edge="1">
          <mxGeometry width="50" height="50" relative="1" as="geometry">
            <mxPoint x="470" y="490.5" as="sourcePoint" />
            <mxPoint x="510" y="410.5" as="targetPoint" />
          </mxGeometry>
        </mxCell>
        <mxCell id="euGdgTzVvTfS2aF6soQ5-28" value="" style="endArrow=none;html=1;rounded=0;orthogonal=0;fillColor=#1ba1e2;strokeColor=#006EAF;" parent="1" edge="1">
          <mxGeometry width="50" height="50" relative="1" as="geometry">
            <mxPoint x="510" y="410.5" as="sourcePoint" />
            <mxPoint x="470" y="330.5" as="targetPoint" />
          </mxGeometry>
        </mxCell>
        <mxCell id="euGdgTzVvTfS2aF6soQ5-34" value="" style="endArrow=none;html=1;rounded=0;orthogonal=0;fillColor=#1ba1e2;strokeColor=#006EAF;" parent="1" edge="1">
          <mxGeometry width="50" height="50" relative="1" as="geometry">
            <mxPoint x="330" y="410.5" as="sourcePoint" />
            <mxPoint x="370" y="330.5" as="targetPoint" />
          </mxGeometry>
        </mxCell>
        <mxCell id="euGdgTzVvTfS2aF6soQ5-46" value="" style="endArrow=none;html=1;rounded=0;orthogonal=0;fillColor=#1ba1e2;strokeColor=#006EAF;" parent="1" edge="1">
          <mxGeometry width="50" height="50" relative="1" as="geometry">
            <mxPoint x="470" y="330" as="sourcePoint" />
            <mxPoint x="369" y="330" as="targetPoint" />
          </mxGeometry>
        </mxCell>
        <mxCell id="euGdgTzVvTfS2aF6soQ5-47" value="" style="endArrow=none;html=1;rounded=0;orthogonal=0;fillColor=#1ba1e2;strokeColor=#006EAF;" parent="1" edge="1">
          <mxGeometry width="50" height="50" relative="1" as="geometry">
            <mxPoint x="470" y="490.5" as="sourcePoint" />
            <mxPoint x="370" y="490.5" as="targetPoint" />
          </mxGeometry>
        </mxCell>
        <mxCell id="euGdgTzVvTfS2aF6soQ5-50" value="" style="endArrow=none;html=1;rounded=0;orthogonal=0;fillColor=#1ba1e2;strokeColor=#006EAF;" parent="1" edge="1">
          <mxGeometry width="50" height="50" relative="1" as="geometry">
            <mxPoint x="230" y="570.5" as="sourcePoint" />
            <mxPoint x="190" y="490.5" as="targetPoint" />
          </mxGeometry>
        </mxCell>
        <mxCell id="euGdgTzVvTfS2aF6soQ5-51" value="" style="endArrow=none;html=1;rounded=0;orthogonal=0;fillColor=#1ba1e2;strokeColor=#006EAF;" parent="1" edge="1">
          <mxGeometry width="50" height="50" relative="1" as="geometry">
            <mxPoint x="330" y="570.5" as="sourcePoint" />
            <mxPoint x="370" y="490.5" as="targetPoint" />
          </mxGeometry>
        </mxCell>
        <mxCell id="euGdgTzVvTfS2aF6soQ5-52" value="" style="endArrow=none;html=1;rounded=0;orthogonal=0;fillColor=#1ba1e2;strokeColor=#006EAF;" parent="1" edge="1">
          <mxGeometry width="50" height="50" relative="1" as="geometry">
            <mxPoint x="370" y="490.5" as="sourcePoint" />
            <mxPoint x="330" y="410.5" as="targetPoint" />
          </mxGeometry>
        </mxCell>
        <mxCell id="euGdgTzVvTfS2aF6soQ5-53" value="" style="endArrow=none;html=1;rounded=0;orthogonal=0;fillColor=#1ba1e2;strokeColor=#006EAF;" parent="1" edge="1">
          <mxGeometry width="50" height="50" relative="1" as="geometry">
            <mxPoint x="190" y="490.5" as="sourcePoint" />
            <mxPoint x="230" y="410.5" as="targetPoint" />
          </mxGeometry>
        </mxCell>
        <mxCell id="euGdgTzVvTfS2aF6soQ5-54" value="" style="endArrow=none;html=1;rounded=0;orthogonal=0;fillColor=#1ba1e2;strokeColor=#006EAF;" parent="1" edge="1">
          <mxGeometry width="50" height="50" relative="1" as="geometry">
            <mxPoint x="330" y="410" as="sourcePoint" />
            <mxPoint x="229" y="410" as="targetPoint" />
          </mxGeometry>
        </mxCell>
        <mxCell id="euGdgTzVvTfS2aF6soQ5-55" value="" style="endArrow=none;html=1;rounded=0;orthogonal=0;fillColor=#1ba1e2;strokeColor=#006EAF;" parent="1" edge="1">
          <mxGeometry width="50" height="50" relative="1" as="geometry">
            <mxPoint x="330" y="570.5" as="sourcePoint" />
            <mxPoint x="230" y="570.5" as="targetPoint" />
          </mxGeometry>
        </mxCell>
        <mxCell id="euGdgTzVvTfS2aF6soQ5-56" value="" style="endArrow=none;html=1;rounded=0;orthogonal=0;fillColor=#1ba1e2;strokeColor=#006EAF;" parent="1" edge="1">
          <mxGeometry width="50" height="50" relative="1" as="geometry">
            <mxPoint x="650" y="490.5" as="sourcePoint" />
            <mxPoint x="610" y="410.5" as="targetPoint" />
          </mxGeometry>
        </mxCell>
        <mxCell id="euGdgTzVvTfS2aF6soQ5-57" value="" style="endArrow=none;html=1;rounded=0;orthogonal=0;fillColor=#1ba1e2;strokeColor=#006EAF;" parent="1" edge="1">
          <mxGeometry width="50" height="50" relative="1" as="geometry">
            <mxPoint x="510" y="570.5" as="sourcePoint" />
            <mxPoint x="470" y="490.5" as="targetPoint" />
          </mxGeometry>
        </mxCell>
        <mxCell id="euGdgTzVvTfS2aF6soQ5-58" value="" style="endArrow=none;html=1;rounded=0;orthogonal=0;fillColor=#1ba1e2;strokeColor=#006EAF;" parent="1" edge="1">
          <mxGeometry width="50" height="50" relative="1" as="geometry">
            <mxPoint x="610" y="570.5" as="sourcePoint" />
            <mxPoint x="650" y="490.5" as="targetPoint" />
          </mxGeometry>
        </mxCell>
        <mxCell id="euGdgTzVvTfS2aF6soQ5-59" value="" style="endArrow=none;html=1;rounded=0;orthogonal=0;fillColor=#1ba1e2;strokeColor=#006EAF;" parent="1" edge="1">
          <mxGeometry width="50" height="50" relative="1" as="geometry">
            <mxPoint x="650" y="490.5" as="sourcePoint" />
            <mxPoint x="610" y="410.5" as="targetPoint" />
          </mxGeometry>
        </mxCell>
        <mxCell id="euGdgTzVvTfS2aF6soQ5-60" value="" style="endArrow=none;html=1;rounded=0;orthogonal=0;fillColor=#1ba1e2;strokeColor=#006EAF;" parent="1" edge="1">
          <mxGeometry width="50" height="50" relative="1" as="geometry">
            <mxPoint x="470" y="490.5" as="sourcePoint" />
            <mxPoint x="510" y="410.5" as="targetPoint" />
          </mxGeometry>
        </mxCell>
        <mxCell id="euGdgTzVvTfS2aF6soQ5-61" value="" style="endArrow=none;html=1;rounded=0;orthogonal=0;fillColor=#1ba1e2;strokeColor=#006EAF;" parent="1" edge="1">
          <mxGeometry width="50" height="50" relative="1" as="geometry">
            <mxPoint x="610" y="410" as="sourcePoint" />
            <mxPoint x="509" y="410" as="targetPoint" />
          </mxGeometry>
        </mxCell>
        <mxCell id="euGdgTzVvTfS2aF6soQ5-62" value="" style="endArrow=none;html=1;rounded=0;orthogonal=0;fillColor=#1ba1e2;strokeColor=#006EAF;" parent="1" edge="1">
          <mxGeometry width="50" height="50" relative="1" as="geometry">
            <mxPoint x="610" y="570.5" as="sourcePoint" />
            <mxPoint x="510" y="570.5" as="targetPoint" />
          </mxGeometry>
        </mxCell>
        <mxCell id="euGdgTzVvTfS2aF6soQ5-63" value="" style="endArrow=none;html=1;rounded=0;orthogonal=0;fillColor=#1ba1e2;strokeColor=#006EAF;" parent="1" edge="1">
          <mxGeometry width="50" height="50" relative="1" as="geometry">
            <mxPoint x="370" y="650.5" as="sourcePoint" />
            <mxPoint x="330" y="570.5" as="targetPoint" />
          </mxGeometry>
        </mxCell>
        <mxCell id="euGdgTzVvTfS2aF6soQ5-64" value="" style="endArrow=none;html=1;rounded=0;orthogonal=0;fillColor=#1ba1e2;strokeColor=#006EAF;" parent="1" edge="1">
          <mxGeometry width="50" height="50" relative="1" as="geometry">
            <mxPoint x="230" y="730.5" as="sourcePoint" />
            <mxPoint x="190" y="650.5" as="targetPoint" />
          </mxGeometry>
        </mxCell>
        <mxCell id="euGdgTzVvTfS2aF6soQ5-65" value="" style="endArrow=none;html=1;rounded=0;orthogonal=0;fillColor=#1ba1e2;strokeColor=#006EAF;" parent="1" edge="1">
          <mxGeometry width="50" height="50" relative="1" as="geometry">
            <mxPoint x="330" y="730.5" as="sourcePoint" />
            <mxPoint x="370" y="650.5" as="targetPoint" />
          </mxGeometry>
        </mxCell>
        <mxCell id="euGdgTzVvTfS2aF6soQ5-66" value="" style="endArrow=none;html=1;rounded=0;orthogonal=0;fillColor=#1ba1e2;strokeColor=#006EAF;" parent="1" edge="1">
          <mxGeometry width="50" height="50" relative="1" as="geometry">
            <mxPoint x="370" y="650.5" as="sourcePoint" />
            <mxPoint x="330" y="570.5" as="targetPoint" />
          </mxGeometry>
        </mxCell>
        <mxCell id="euGdgTzVvTfS2aF6soQ5-67" value="" style="endArrow=none;html=1;rounded=0;orthogonal=0;fillColor=#1ba1e2;strokeColor=#006EAF;" parent="1" edge="1">
          <mxGeometry width="50" height="50" relative="1" as="geometry">
            <mxPoint x="190" y="650.5" as="sourcePoint" />
            <mxPoint x="230" y="570.5" as="targetPoint" />
          </mxGeometry>
        </mxCell>
        <mxCell id="euGdgTzVvTfS2aF6soQ5-68" value="" style="endArrow=none;html=1;rounded=0;orthogonal=0;fillColor=#1ba1e2;strokeColor=#006EAF;" parent="1" edge="1">
          <mxGeometry width="50" height="50" relative="1" as="geometry">
            <mxPoint x="330" y="570" as="sourcePoint" />
            <mxPoint x="229" y="570" as="targetPoint" />
          </mxGeometry>
        </mxCell>
        <mxCell id="euGdgTzVvTfS2aF6soQ5-69" value="" style="endArrow=none;html=1;rounded=0;orthogonal=0;fillColor=#1ba1e2;strokeColor=#006EAF;" parent="1" edge="1">
          <mxGeometry width="50" height="50" relative="1" as="geometry">
            <mxPoint x="330" y="730.5" as="sourcePoint" />
            <mxPoint x="230" y="730.5" as="targetPoint" />
          </mxGeometry>
        </mxCell>
        <mxCell id="euGdgTzVvTfS2aF6soQ5-70" value="" style="endArrow=none;html=1;rounded=0;orthogonal=0;fillColor=#1ba1e2;strokeColor=#006EAF;" parent="1" edge="1">
          <mxGeometry width="50" height="50" relative="1" as="geometry">
            <mxPoint x="650" y="650.5" as="sourcePoint" />
            <mxPoint x="610" y="570.5" as="targetPoint" />
          </mxGeometry>
        </mxCell>
        <mxCell id="euGdgTzVvTfS2aF6soQ5-71" value="" style="endArrow=none;html=1;rounded=0;orthogonal=0;fillColor=#1ba1e2;strokeColor=#006EAF;" parent="1" edge="1">
          <mxGeometry width="50" height="50" relative="1" as="geometry">
            <mxPoint x="510" y="730.5" as="sourcePoint" />
            <mxPoint x="470" y="650.5" as="targetPoint" />
          </mxGeometry>
        </mxCell>
        <mxCell id="euGdgTzVvTfS2aF6soQ5-72" value="" style="endArrow=none;html=1;rounded=0;orthogonal=0;fillColor=#1ba1e2;strokeColor=#006EAF;" parent="1" edge="1">
          <mxGeometry width="50" height="50" relative="1" as="geometry">
            <mxPoint x="610" y="730.5" as="sourcePoint" />
            <mxPoint x="650" y="650.5" as="targetPoint" />
          </mxGeometry>
        </mxCell>
        <mxCell id="euGdgTzVvTfS2aF6soQ5-73" value="" style="endArrow=none;html=1;rounded=0;orthogonal=0;fillColor=#1ba1e2;strokeColor=#006EAF;" parent="1" edge="1">
          <mxGeometry width="50" height="50" relative="1" as="geometry">
            <mxPoint x="650" y="650.5" as="sourcePoint" />
            <mxPoint x="610" y="570.5" as="targetPoint" />
          </mxGeometry>
        </mxCell>
        <mxCell id="euGdgTzVvTfS2aF6soQ5-74" value="" style="endArrow=none;html=1;rounded=0;orthogonal=0;fillColor=#1ba1e2;strokeColor=#006EAF;" parent="1" edge="1">
          <mxGeometry width="50" height="50" relative="1" as="geometry">
            <mxPoint x="470" y="650.5" as="sourcePoint" />
            <mxPoint x="510" y="570.5" as="targetPoint" />
          </mxGeometry>
        </mxCell>
        <mxCell id="euGdgTzVvTfS2aF6soQ5-75" value="" style="endArrow=none;html=1;rounded=0;orthogonal=0;fillColor=#1ba1e2;strokeColor=#006EAF;" parent="1" edge="1">
          <mxGeometry width="50" height="50" relative="1" as="geometry">
            <mxPoint x="610" y="570" as="sourcePoint" />
            <mxPoint x="509" y="570" as="targetPoint" />
          </mxGeometry>
        </mxCell>
        <mxCell id="euGdgTzVvTfS2aF6soQ5-77" value="" style="endArrow=none;html=1;rounded=0;orthogonal=0;fillColor=#1ba1e2;strokeColor=#006EAF;" parent="1" edge="1">
          <mxGeometry width="50" height="50" relative="1" as="geometry">
            <mxPoint x="510" y="730.5" as="sourcePoint" />
            <mxPoint x="470" y="650.5" as="targetPoint" />
          </mxGeometry>
        </mxCell>
        <mxCell id="euGdgTzVvTfS2aF6soQ5-78" value="" style="endArrow=none;html=1;rounded=0;orthogonal=0;fillColor=#1ba1e2;strokeColor=#006EAF;" parent="1" edge="1">
          <mxGeometry width="50" height="50" relative="1" as="geometry">
            <mxPoint x="370" y="810.5" as="sourcePoint" />
            <mxPoint x="330" y="730.5" as="targetPoint" />
          </mxGeometry>
        </mxCell>
        <mxCell id="euGdgTzVvTfS2aF6soQ5-79" value="" style="endArrow=none;html=1;rounded=0;orthogonal=0;fillColor=#1ba1e2;strokeColor=#006EAF;" parent="1" edge="1">
          <mxGeometry width="50" height="50" relative="1" as="geometry">
            <mxPoint x="470" y="810.5" as="sourcePoint" />
            <mxPoint x="510" y="730.5" as="targetPoint" />
          </mxGeometry>
        </mxCell>
        <mxCell id="euGdgTzVvTfS2aF6soQ5-80" value="" style="endArrow=none;html=1;rounded=0;orthogonal=0;fillColor=#1ba1e2;strokeColor=#006EAF;" parent="1" edge="1">
          <mxGeometry width="50" height="50" relative="1" as="geometry">
            <mxPoint x="510" y="730.5" as="sourcePoint" />
            <mxPoint x="470" y="650.5" as="targetPoint" />
          </mxGeometry>
        </mxCell>
        <mxCell id="euGdgTzVvTfS2aF6soQ5-81" value="" style="endArrow=none;html=1;rounded=0;orthogonal=0;fillColor=#1ba1e2;strokeColor=#006EAF;" parent="1" edge="1">
          <mxGeometry width="50" height="50" relative="1" as="geometry">
            <mxPoint x="330" y="730.5" as="sourcePoint" />
            <mxPoint x="370" y="650.5" as="targetPoint" />
          </mxGeometry>
        </mxCell>
        <mxCell id="euGdgTzVvTfS2aF6soQ5-82" value="" style="endArrow=none;html=1;rounded=0;orthogonal=0;fillColor=#1ba1e2;strokeColor=#006EAF;" parent="1" edge="1">
          <mxGeometry width="50" height="50" relative="1" as="geometry">
            <mxPoint x="470" y="650" as="sourcePoint" />
            <mxPoint x="369" y="650" as="targetPoint" />
          </mxGeometry>
        </mxCell>
        <mxCell id="euGdgTzVvTfS2aF6soQ5-87" value="" style="endArrow=none;dashed=1;html=1;dashPattern=1 3;strokeWidth=2;rounded=0;" parent="1" edge="1">
          <mxGeometry width="50" height="50" relative="1" as="geometry">
            <mxPoint x="560" y="650" as="sourcePoint" />
            <mxPoint x="620" y="650" as="targetPoint" />
          </mxGeometry>
        </mxCell>
        <mxCell id="euGdgTzVvTfS2aF6soQ5-91" value="l" style="endArrow=classic;startArrow=classic;html=1;rounded=0;" parent="1" edge="1">
          <mxGeometry y="10" width="50" height="50" relative="1" as="geometry">
            <mxPoint x="440" y="660" as="sourcePoint" />
            <mxPoint x="480" y="750" as="targetPoint" />
            <mxPoint as="offset" />
          </mxGeometry>
        </mxCell>
        <mxCell id="euGdgTzVvTfS2aF6soQ5-97" value="$$l$$" style="edgeLabel;html=1;align=center;verticalAlign=middle;resizable=0;points=[];fontSize=23;" parent="euGdgTzVvTfS2aF6soQ5-91" vertex="1" connectable="0">
          <mxGeometry x="-0.06" relative="1" as="geometry">
            <mxPoint x="-9" y="-12" as="offset" />
          </mxGeometry>
        </mxCell>
        <mxCell id="euGdgTzVvTfS2aF6soQ5-92" value="&lt;font style=&quot;font-size: 20px;&quot;&gt;$$\sqrt{3}l$$&lt;/font&gt;" style="endArrow=classic;startArrow=classic;html=1;rounded=0;" parent="1" edge="1">
          <mxGeometry width="50" height="50" relative="1" as="geometry">
            <mxPoint x="590" y="650" as="sourcePoint" />
            <mxPoint x="590" y="490" as="targetPoint" />
          </mxGeometry>
        </mxCell>
        <mxCell id="euGdgTzVvTfS2aF6soQ5-93" value="" style="endArrow=none;dashed=1;html=1;dashPattern=1 3;strokeWidth=2;rounded=0;" parent="1" edge="1">
          <mxGeometry width="50" height="50" relative="1" as="geometry">
            <mxPoint x="560" y="490" as="sourcePoint" />
            <mxPoint x="620" y="490" as="targetPoint" />
          </mxGeometry>
        </mxCell>
        <mxCell id="euGdgTzVvTfS2aF6soQ5-94" value="" style="endArrow=none;dashed=1;html=1;dashPattern=1 3;strokeWidth=2;rounded=0;" parent="1" edge="1">
          <mxGeometry width="50" height="50" relative="1" as="geometry">
            <mxPoint x="410" y="680" as="sourcePoint" />
            <mxPoint x="470" y="650" as="targetPoint" />
          </mxGeometry>
        </mxCell>
        <mxCell id="euGdgTzVvTfS2aF6soQ5-95" value="" style="endArrow=none;dashed=1;html=1;dashPattern=1 3;strokeWidth=2;rounded=0;" parent="1" edge="1">
          <mxGeometry width="50" height="50" relative="1" as="geometry">
            <mxPoint x="460" y="760" as="sourcePoint" />
            <mxPoint x="510" y="730" as="targetPoint" />
          </mxGeometry>
        </mxCell>
        <mxCell id="euGdgTzVvTfS2aF6soQ5-100" value="" style="endArrow=none;html=1;rounded=0;orthogonal=0;fillColor=#1ba1e2;strokeColor=#006EAF;" parent="1" edge="1">
          <mxGeometry width="50" height="50" relative="1" as="geometry">
            <mxPoint x="470" y="810" as="sourcePoint" />
            <mxPoint x="370" y="810" as="targetPoint" />
          </mxGeometry>
        </mxCell>
        <mxCell id="euGdgTzVvTfS2aF6soQ5-104" value="" style="endArrow=none;dashed=1;html=1;dashPattern=1 3;strokeWidth=2;rounded=0;" parent="1" edge="1">
          <mxGeometry width="50" height="50" relative="1" as="geometry">
            <mxPoint x="470" y="650" as="sourcePoint" />
            <mxPoint x="470" y="620" as="targetPoint" />
          </mxGeometry>
        </mxCell>
        <mxCell id="euGdgTzVvTfS2aF6soQ5-105" value="&lt;font style=&quot;font-size: 20px;&quot;&gt;$$l$$&lt;/font&gt;" style="endArrow=classic;startArrow=classic;html=1;rounded=0;" parent="1" edge="1">
          <mxGeometry width="50" height="50" relative="1" as="geometry">
            <mxPoint x="470" y="630" as="sourcePoint" />
            <mxPoint x="560" y="630" as="targetPoint" />
          </mxGeometry>
        </mxCell>
        <mxCell id="euGdgTzVvTfS2aF6soQ5-106" value="" style="endArrow=none;html=1;rounded=0;orthogonal=0;fillColor=#1ba1e2;strokeColor=#006EAF;" parent="1" edge="1">
          <mxGeometry width="50" height="50" relative="1" as="geometry">
            <mxPoint x="610" y="730" as="sourcePoint" />
            <mxPoint x="510" y="730" as="targetPoint" />
          </mxGeometry>
        </mxCell>
        <mxCell id="euGdgTzVvTfS2aF6soQ5-107" value="" style="endArrow=none;dashed=1;html=1;rounded=0;fillColor=#1ba1e2;strokeColor=#006EAF;" parent="1" edge="1">
          <mxGeometry width="50" height="50" relative="1" as="geometry">
            <mxPoint x="470" y="650" as="sourcePoint" />
            <mxPoint x="560" y="650" as="targetPoint" />
          </mxGeometry>
        </mxCell>
        <mxCell id="BEa2w6aczdv70VKFIldG-1" value="" style="endArrow=none;dashed=1;html=1;dashPattern=1 3;strokeWidth=2;rounded=0;" parent="1" edge="1">
          <mxGeometry width="50" height="50" relative="1" as="geometry">
            <mxPoint x="580" y="690" as="sourcePoint" />
            <mxPoint x="560" y="650" as="targetPoint" />
          </mxGeometry>
        </mxCell>
        <mxCell id="BEa2w6aczdv70VKFIldG-2" value="&lt;font style=&quot;font-size: 12px;&quot;&gt;$$\frac{\sqrt{3}}{2}l$$&lt;/font&gt;" style="endArrow=classic;startArrow=classic;html=1;rounded=0;" parent="1" edge="1">
          <mxGeometry width="50" height="50" relative="1" as="geometry">
            <mxPoint x="500" y="710" as="sourcePoint" />
            <mxPoint x="570" y="670" as="targetPoint" />
          </mxGeometry>
        </mxCell>
        <mxCell id="BEa2w6aczdv70VKFIldG-3" value="" style="endArrow=none;html=1;rounded=0;editable=1;movable=1;resizable=1;rotatable=1;deletable=1;locked=0;connectable=1;strokeWidth=6;fillColor=#d80073;strokeColor=#FF6666;" parent="1" edge="1">
          <mxGeometry width="50" height="50" relative="1" as="geometry">
            <mxPoint x="420" y="730" as="sourcePoint" />
            <mxPoint x="560" y="650" as="targetPoint" />
          </mxGeometry>
        </mxCell>
        <mxCell id="FOWiV_mNPu99ppeeIcuQ-23" value="" style="group" vertex="1" connectable="0" parent="1">
          <mxGeometry x="460" y="70" width="180" height="160.5" as="geometry" />
        </mxCell>
        <mxCell id="FOWiV_mNPu99ppeeIcuQ-2" value="" style="endArrow=none;html=1;rounded=0;orthogonal=0;fillColor=#1ba1e2;strokeColor=#006EAF;" edge="1" parent="FOWiV_mNPu99ppeeIcuQ-23">
          <mxGeometry width="50" height="50" relative="1" as="geometry">
            <mxPoint x="180" y="80.5" as="sourcePoint" />
            <mxPoint x="140" y="0.5" as="targetPoint" />
          </mxGeometry>
        </mxCell>
        <mxCell id="FOWiV_mNPu99ppeeIcuQ-3" value="" style="endArrow=none;html=1;rounded=0;orthogonal=0;fillColor=#1ba1e2;strokeColor=#006EAF;" edge="1" parent="FOWiV_mNPu99ppeeIcuQ-23">
          <mxGeometry width="50" height="50" relative="1" as="geometry">
            <mxPoint x="40" y="160.5" as="sourcePoint" />
            <mxPoint y="80.5" as="targetPoint" />
          </mxGeometry>
        </mxCell>
        <mxCell id="FOWiV_mNPu99ppeeIcuQ-4" value="" style="endArrow=none;html=1;rounded=0;orthogonal=0;fillColor=#1ba1e2;strokeColor=#006EAF;" edge="1" parent="FOWiV_mNPu99ppeeIcuQ-23">
          <mxGeometry width="50" height="50" relative="1" as="geometry">
            <mxPoint x="140" y="160.5" as="sourcePoint" />
            <mxPoint x="180" y="80.5" as="targetPoint" />
          </mxGeometry>
        </mxCell>
        <mxCell id="FOWiV_mNPu99ppeeIcuQ-5" value="" style="endArrow=none;html=1;rounded=0;orthogonal=0;fillColor=#1ba1e2;strokeColor=#006EAF;" edge="1" parent="FOWiV_mNPu99ppeeIcuQ-23">
          <mxGeometry width="50" height="50" relative="1" as="geometry">
            <mxPoint x="180" y="80.5" as="sourcePoint" />
            <mxPoint x="140" y="0.5" as="targetPoint" />
          </mxGeometry>
        </mxCell>
        <mxCell id="FOWiV_mNPu99ppeeIcuQ-6" value="" style="endArrow=none;html=1;rounded=0;orthogonal=0;fillColor=#1ba1e2;strokeColor=#006EAF;" edge="1" parent="FOWiV_mNPu99ppeeIcuQ-23">
          <mxGeometry width="50" height="50" relative="1" as="geometry">
            <mxPoint y="80.5" as="sourcePoint" />
            <mxPoint x="40" y="0.5" as="targetPoint" />
          </mxGeometry>
        </mxCell>
        <mxCell id="FOWiV_mNPu99ppeeIcuQ-7" value="" style="endArrow=none;html=1;rounded=0;orthogonal=0;fillColor=#1ba1e2;strokeColor=#006EAF;" edge="1" parent="FOWiV_mNPu99ppeeIcuQ-23">
          <mxGeometry width="50" height="50" relative="1" as="geometry">
            <mxPoint x="140" as="sourcePoint" />
            <mxPoint x="39" as="targetPoint" />
          </mxGeometry>
        </mxCell>
        <mxCell id="FOWiV_mNPu99ppeeIcuQ-8" value="" style="endArrow=none;html=1;rounded=0;orthogonal=0;fillColor=#1ba1e2;strokeColor=#006EAF;" edge="1" parent="FOWiV_mNPu99ppeeIcuQ-23">
          <mxGeometry width="50" height="50" relative="1" as="geometry">
            <mxPoint x="140" y="160.5" as="sourcePoint" />
            <mxPoint x="40" y="160.5" as="targetPoint" />
          </mxGeometry>
        </mxCell>
        <mxCell id="FOWiV_mNPu99ppeeIcuQ-9" value="" style="endArrow=none;html=1;rounded=0;orthogonal=0;fillColor=#1ba1e2;strokeColor=#006EAF;" edge="1" parent="FOWiV_mNPu99ppeeIcuQ-23">
          <mxGeometry width="50" height="50" relative="1" as="geometry">
            <mxPoint x="140" y="160" as="sourcePoint" />
            <mxPoint x="39" y="160" as="targetPoint" />
          </mxGeometry>
        </mxCell>
        <mxCell id="FOWiV_mNPu99ppeeIcuQ-25" value="" style="group;aspect=fixed;" vertex="1" connectable="0" parent="FOWiV_mNPu99ppeeIcuQ-23">
          <mxGeometry x="12" y="10.680000000000007" width="156" height="139.14" as="geometry" />
        </mxCell>
        <mxCell id="FOWiV_mNPu99ppeeIcuQ-26" value="" style="endArrow=none;html=1;rounded=0;orthogonal=0;fillColor=#1ba1e2;strokeColor=#006EAF;" edge="1" parent="FOWiV_mNPu99ppeeIcuQ-25">
          <mxGeometry width="50" height="50" relative="1" as="geometry">
            <mxPoint x="156" y="69.78672897196256" as="sourcePoint" />
            <mxPoint x="121.33333333333341" y="0.4334579439252335" as="targetPoint" />
          </mxGeometry>
        </mxCell>
        <mxCell id="FOWiV_mNPu99ppeeIcuQ-27" value="" style="endArrow=none;html=1;rounded=0;orthogonal=0;fillColor=#1ba1e2;strokeColor=#006EAF;" edge="1" parent="FOWiV_mNPu99ppeeIcuQ-25">
          <mxGeometry width="50" height="50" relative="1" as="geometry">
            <mxPoint x="34.666666666666686" y="139.14" as="sourcePoint" />
            <mxPoint y="69.78672897196256" as="targetPoint" />
          </mxGeometry>
        </mxCell>
        <mxCell id="FOWiV_mNPu99ppeeIcuQ-28" value="" style="endArrow=none;html=1;rounded=0;orthogonal=0;fillColor=#1ba1e2;strokeColor=#006EAF;" edge="1" parent="FOWiV_mNPu99ppeeIcuQ-25">
          <mxGeometry width="50" height="50" relative="1" as="geometry">
            <mxPoint x="121.33333333333341" y="139.14" as="sourcePoint" />
            <mxPoint x="156" y="69.78672897196256" as="targetPoint" />
          </mxGeometry>
        </mxCell>
        <mxCell id="FOWiV_mNPu99ppeeIcuQ-29" value="" style="endArrow=none;html=1;rounded=0;orthogonal=0;fillColor=#1ba1e2;strokeColor=#006EAF;" edge="1" parent="FOWiV_mNPu99ppeeIcuQ-25">
          <mxGeometry width="50" height="50" relative="1" as="geometry">
            <mxPoint x="156" y="69.78672897196256" as="sourcePoint" />
            <mxPoint x="121.33333333333341" y="0.4334579439252335" as="targetPoint" />
          </mxGeometry>
        </mxCell>
        <mxCell id="FOWiV_mNPu99ppeeIcuQ-30" value="" style="endArrow=none;html=1;rounded=0;orthogonal=0;fillColor=#1ba1e2;strokeColor=#006EAF;" edge="1" parent="FOWiV_mNPu99ppeeIcuQ-25">
          <mxGeometry width="50" height="50" relative="1" as="geometry">
            <mxPoint y="69.78672897196256" as="sourcePoint" />
            <mxPoint x="34.666666666666686" y="0.4334579439252335" as="targetPoint" />
          </mxGeometry>
        </mxCell>
        <mxCell id="FOWiV_mNPu99ppeeIcuQ-31" value="" style="endArrow=none;html=1;rounded=0;orthogonal=0;fillColor=#1ba1e2;strokeColor=#006EAF;" edge="1" parent="FOWiV_mNPu99ppeeIcuQ-25">
          <mxGeometry width="50" height="50" relative="1" as="geometry">
            <mxPoint x="121.33333333333341" as="sourcePoint" />
            <mxPoint x="33.79999999999996" as="targetPoint" />
          </mxGeometry>
        </mxCell>
        <mxCell id="FOWiV_mNPu99ppeeIcuQ-32" value="" style="endArrow=none;html=1;rounded=0;orthogonal=0;fillColor=#1ba1e2;strokeColor=#006EAF;" edge="1" parent="FOWiV_mNPu99ppeeIcuQ-25">
          <mxGeometry width="50" height="50" relative="1" as="geometry">
            <mxPoint x="121.33333333333341" y="139.14" as="sourcePoint" />
            <mxPoint x="34.666666666666686" y="139.14" as="targetPoint" />
          </mxGeometry>
        </mxCell>
        <mxCell id="FOWiV_mNPu99ppeeIcuQ-33" value="" style="endArrow=none;html=1;rounded=0;orthogonal=0;fillColor=#1ba1e2;strokeColor=#006EAF;" edge="1" parent="FOWiV_mNPu99ppeeIcuQ-25">
          <mxGeometry width="50" height="50" relative="1" as="geometry">
            <mxPoint x="121.33333333333341" y="138.70654205607485" as="sourcePoint" />
            <mxPoint x="33.79999999999996" y="138.70654205607485" as="targetPoint" />
          </mxGeometry>
        </mxCell>
      </root>
    </mxGraphModel>
  </diagram>
  <diagram id="oA0FnPTCOa9fSWRZxjro" name="Page-2">
    <mxGraphModel dx="1364" dy="767" grid="1" gridSize="10" guides="1" tooltips="1" connect="1" arrows="1" fold="1" page="1" pageScale="2" pageWidth="850" pageHeight="1100" math="0" shadow="0">
      <root>
        <mxCell id="0" />
        <mxCell id="1" parent="0" />
        <mxCell id="8YrW1Lh8n-N_oSTnDQjS-19" value="" style="group" vertex="1" connectable="0" parent="1">
          <mxGeometry x="380" y="70" width="206" height="169.64" as="geometry" />
        </mxCell>
        <mxCell id="8YrW1Lh8n-N_oSTnDQjS-20" value="" style="endArrow=none;html=1;rounded=0;orthogonal=0;fillColor=#1ba1e2;strokeColor=#006EAF;" edge="1" parent="8YrW1Lh8n-N_oSTnDQjS-19">
          <mxGeometry width="50" height="50" relative="1" as="geometry">
            <mxPoint x="180" y="80.5" as="sourcePoint" />
            <mxPoint x="140" y="0.5" as="targetPoint" />
          </mxGeometry>
        </mxCell>
        <mxCell id="8YrW1Lh8n-N_oSTnDQjS-21" value="" style="endArrow=none;html=1;rounded=0;orthogonal=0;fillColor=#1ba1e2;strokeColor=#006EAF;" edge="1" parent="8YrW1Lh8n-N_oSTnDQjS-19">
          <mxGeometry width="50" height="50" relative="1" as="geometry">
            <mxPoint x="40" y="160.5" as="sourcePoint" />
            <mxPoint y="80.5" as="targetPoint" />
          </mxGeometry>
        </mxCell>
        <mxCell id="8YrW1Lh8n-N_oSTnDQjS-22" value="" style="endArrow=none;html=1;rounded=0;orthogonal=0;fillColor=#1ba1e2;strokeColor=#006EAF;" edge="1" parent="8YrW1Lh8n-N_oSTnDQjS-19">
          <mxGeometry width="50" height="50" relative="1" as="geometry">
            <mxPoint x="140" y="160.5" as="sourcePoint" />
            <mxPoint x="180" y="80.5" as="targetPoint" />
          </mxGeometry>
        </mxCell>
        <mxCell id="8YrW1Lh8n-N_oSTnDQjS-23" value="" style="endArrow=none;html=1;rounded=0;orthogonal=0;fillColor=#1ba1e2;strokeColor=#006EAF;" edge="1" parent="8YrW1Lh8n-N_oSTnDQjS-19">
          <mxGeometry width="50" height="50" relative="1" as="geometry">
            <mxPoint x="180" y="80.5" as="sourcePoint" />
            <mxPoint x="140" y="0.5" as="targetPoint" />
          </mxGeometry>
        </mxCell>
        <mxCell id="8YrW1Lh8n-N_oSTnDQjS-24" value="" style="endArrow=none;html=1;rounded=0;orthogonal=0;fillColor=#1ba1e2;strokeColor=#006EAF;" edge="1" parent="8YrW1Lh8n-N_oSTnDQjS-19">
          <mxGeometry width="50" height="50" relative="1" as="geometry">
            <mxPoint y="80.5" as="sourcePoint" />
            <mxPoint x="40" y="0.5" as="targetPoint" />
          </mxGeometry>
        </mxCell>
        <mxCell id="8YrW1Lh8n-N_oSTnDQjS-25" value="" style="endArrow=none;html=1;rounded=0;orthogonal=0;fillColor=#1ba1e2;strokeColor=#006EAF;" edge="1" parent="8YrW1Lh8n-N_oSTnDQjS-19">
          <mxGeometry width="50" height="50" relative="1" as="geometry">
            <mxPoint x="140" as="sourcePoint" />
            <mxPoint x="39" as="targetPoint" />
          </mxGeometry>
        </mxCell>
        <mxCell id="8YrW1Lh8n-N_oSTnDQjS-26" value="" style="endArrow=none;html=1;rounded=0;orthogonal=0;fillColor=#1ba1e2;strokeColor=#006EAF;" edge="1" parent="8YrW1Lh8n-N_oSTnDQjS-19">
          <mxGeometry width="50" height="50" relative="1" as="geometry">
            <mxPoint x="140" y="160.5" as="sourcePoint" />
            <mxPoint x="40" y="160.5" as="targetPoint" />
          </mxGeometry>
        </mxCell>
        <mxCell id="8YrW1Lh8n-N_oSTnDQjS-27" value="" style="endArrow=none;html=1;rounded=0;orthogonal=0;fillColor=#1ba1e2;strokeColor=#006EAF;" edge="1" parent="8YrW1Lh8n-N_oSTnDQjS-19">
          <mxGeometry width="50" height="50" relative="1" as="geometry">
            <mxPoint x="140" y="160" as="sourcePoint" />
            <mxPoint x="39" y="160" as="targetPoint" />
          </mxGeometry>
        </mxCell>
        <mxCell id="8YrW1Lh8n-N_oSTnDQjS-28" value="" style="group" vertex="1" connectable="0" parent="1">
          <mxGeometry x="380" y="230.5" width="320" height="320.5" as="geometry" />
        </mxCell>
        <mxCell id="8YrW1Lh8n-N_oSTnDQjS-29" value="" style="endArrow=none;html=1;rounded=0;orthogonal=0;fillColor=#1ba1e2;strokeColor=#006EAF;" edge="1" parent="8YrW1Lh8n-N_oSTnDQjS-28">
          <mxGeometry width="50" height="50" relative="1" as="geometry">
            <mxPoint x="180" y="80.5" as="sourcePoint" />
            <mxPoint x="140" y="0.5" as="targetPoint" />
          </mxGeometry>
        </mxCell>
        <mxCell id="8YrW1Lh8n-N_oSTnDQjS-30" value="" style="endArrow=none;html=1;rounded=0;orthogonal=0;fillColor=#1ba1e2;strokeColor=#006EAF;" edge="1" parent="8YrW1Lh8n-N_oSTnDQjS-28">
          <mxGeometry width="50" height="50" relative="1" as="geometry">
            <mxPoint x="40" y="160.5" as="sourcePoint" />
            <mxPoint y="80.5" as="targetPoint" />
          </mxGeometry>
        </mxCell>
        <mxCell id="8YrW1Lh8n-N_oSTnDQjS-31" value="" style="endArrow=none;html=1;rounded=0;orthogonal=0;fillColor=#1ba1e2;strokeColor=#006EAF;" edge="1" parent="8YrW1Lh8n-N_oSTnDQjS-28">
          <mxGeometry width="50" height="50" relative="1" as="geometry">
            <mxPoint x="140" y="160.5" as="sourcePoint" />
            <mxPoint x="180" y="80.5" as="targetPoint" />
          </mxGeometry>
        </mxCell>
        <mxCell id="8YrW1Lh8n-N_oSTnDQjS-32" value="" style="endArrow=none;html=1;rounded=0;orthogonal=0;fillColor=#1ba1e2;strokeColor=#006EAF;" edge="1" parent="8YrW1Lh8n-N_oSTnDQjS-28">
          <mxGeometry width="50" height="50" relative="1" as="geometry">
            <mxPoint x="180" y="80.5" as="sourcePoint" />
            <mxPoint x="140" y="0.5" as="targetPoint" />
          </mxGeometry>
        </mxCell>
        <mxCell id="8YrW1Lh8n-N_oSTnDQjS-33" value="" style="endArrow=none;html=1;rounded=0;orthogonal=0;fillColor=#1ba1e2;strokeColor=#006EAF;" edge="1" parent="8YrW1Lh8n-N_oSTnDQjS-28">
          <mxGeometry width="50" height="50" relative="1" as="geometry">
            <mxPoint y="80.5" as="sourcePoint" />
            <mxPoint x="40" y="0.5" as="targetPoint" />
          </mxGeometry>
        </mxCell>
        <mxCell id="8YrW1Lh8n-N_oSTnDQjS-34" value="" style="endArrow=none;html=1;rounded=0;orthogonal=0;fillColor=#1ba1e2;strokeColor=#006EAF;" edge="1" parent="8YrW1Lh8n-N_oSTnDQjS-28">
          <mxGeometry width="50" height="50" relative="1" as="geometry">
            <mxPoint x="140" as="sourcePoint" />
            <mxPoint x="39" as="targetPoint" />
          </mxGeometry>
        </mxCell>
        <mxCell id="8YrW1Lh8n-N_oSTnDQjS-35" value="" style="endArrow=none;html=1;rounded=0;orthogonal=0;fillColor=#1ba1e2;strokeColor=#006EAF;" edge="1" parent="8YrW1Lh8n-N_oSTnDQjS-28">
          <mxGeometry width="50" height="50" relative="1" as="geometry">
            <mxPoint x="140" y="160.5" as="sourcePoint" />
            <mxPoint x="40" y="160.5" as="targetPoint" />
          </mxGeometry>
        </mxCell>
        <mxCell id="8YrW1Lh8n-N_oSTnDQjS-36" value="" style="endArrow=none;html=1;rounded=0;orthogonal=0;fillColor=#1ba1e2;strokeColor=#006EAF;" edge="1" parent="8YrW1Lh8n-N_oSTnDQjS-28">
          <mxGeometry width="50" height="50" relative="1" as="geometry">
            <mxPoint x="140" y="160" as="sourcePoint" />
            <mxPoint x="39" y="160" as="targetPoint" />
          </mxGeometry>
        </mxCell>
        <mxCell id="8YrW1Lh8n-N_oSTnDQjS-1" value="" style="group" vertex="1" connectable="0" parent="8YrW1Lh8n-N_oSTnDQjS-28">
          <mxGeometry x="140" y="80" width="180" height="160.5" as="geometry" />
        </mxCell>
        <mxCell id="8YrW1Lh8n-N_oSTnDQjS-2" value="" style="endArrow=none;html=1;rounded=0;orthogonal=0;fillColor=#1ba1e2;strokeColor=#006EAF;" edge="1" parent="8YrW1Lh8n-N_oSTnDQjS-1">
          <mxGeometry width="50" height="50" relative="1" as="geometry">
            <mxPoint x="180" y="80.5" as="sourcePoint" />
            <mxPoint x="140" y="0.5" as="targetPoint" />
          </mxGeometry>
        </mxCell>
        <mxCell id="8YrW1Lh8n-N_oSTnDQjS-3" value="" style="endArrow=none;html=1;rounded=0;orthogonal=0;fillColor=#1ba1e2;strokeColor=#006EAF;" edge="1" parent="8YrW1Lh8n-N_oSTnDQjS-1">
          <mxGeometry width="50" height="50" relative="1" as="geometry">
            <mxPoint x="40" y="160.5" as="sourcePoint" />
            <mxPoint y="80.5" as="targetPoint" />
          </mxGeometry>
        </mxCell>
        <mxCell id="8YrW1Lh8n-N_oSTnDQjS-4" value="" style="endArrow=none;html=1;rounded=0;orthogonal=0;fillColor=#1ba1e2;strokeColor=#006EAF;" edge="1" parent="8YrW1Lh8n-N_oSTnDQjS-1">
          <mxGeometry width="50" height="50" relative="1" as="geometry">
            <mxPoint x="140" y="160.5" as="sourcePoint" />
            <mxPoint x="180" y="80.5" as="targetPoint" />
          </mxGeometry>
        </mxCell>
        <mxCell id="8YrW1Lh8n-N_oSTnDQjS-5" value="" style="endArrow=none;html=1;rounded=0;orthogonal=0;fillColor=#1ba1e2;strokeColor=#006EAF;" edge="1" parent="8YrW1Lh8n-N_oSTnDQjS-1">
          <mxGeometry width="50" height="50" relative="1" as="geometry">
            <mxPoint x="180" y="80.5" as="sourcePoint" />
            <mxPoint x="140" y="0.5" as="targetPoint" />
          </mxGeometry>
        </mxCell>
        <mxCell id="8YrW1Lh8n-N_oSTnDQjS-6" value="" style="endArrow=none;html=1;rounded=0;orthogonal=0;fillColor=#1ba1e2;strokeColor=#006EAF;" edge="1" parent="8YrW1Lh8n-N_oSTnDQjS-1">
          <mxGeometry width="50" height="50" relative="1" as="geometry">
            <mxPoint y="80.5" as="sourcePoint" />
            <mxPoint x="40" y="0.5" as="targetPoint" />
          </mxGeometry>
        </mxCell>
        <mxCell id="8YrW1Lh8n-N_oSTnDQjS-7" value="" style="endArrow=none;html=1;rounded=0;orthogonal=0;fillColor=#1ba1e2;strokeColor=#006EAF;" edge="1" parent="8YrW1Lh8n-N_oSTnDQjS-1">
          <mxGeometry width="50" height="50" relative="1" as="geometry">
            <mxPoint x="140" as="sourcePoint" />
            <mxPoint x="39" as="targetPoint" />
          </mxGeometry>
        </mxCell>
        <mxCell id="8YrW1Lh8n-N_oSTnDQjS-8" value="" style="endArrow=none;html=1;rounded=0;orthogonal=0;fillColor=#1ba1e2;strokeColor=#006EAF;" edge="1" parent="8YrW1Lh8n-N_oSTnDQjS-1">
          <mxGeometry width="50" height="50" relative="1" as="geometry">
            <mxPoint x="140" y="160.5" as="sourcePoint" />
            <mxPoint x="40" y="160.5" as="targetPoint" />
          </mxGeometry>
        </mxCell>
        <mxCell id="8YrW1Lh8n-N_oSTnDQjS-9" value="" style="endArrow=none;html=1;rounded=0;orthogonal=0;fillColor=#1ba1e2;strokeColor=#006EAF;" edge="1" parent="8YrW1Lh8n-N_oSTnDQjS-1">
          <mxGeometry width="50" height="50" relative="1" as="geometry">
            <mxPoint x="140" y="160" as="sourcePoint" />
            <mxPoint x="39" y="160" as="targetPoint" />
          </mxGeometry>
        </mxCell>
        <mxCell id="8YrW1Lh8n-N_oSTnDQjS-55" value="" style="group" vertex="1" connectable="0" parent="8YrW1Lh8n-N_oSTnDQjS-28">
          <mxGeometry y="160" width="180" height="160.5" as="geometry" />
        </mxCell>
        <mxCell id="8YrW1Lh8n-N_oSTnDQjS-56" value="" style="endArrow=none;html=1;rounded=0;orthogonal=0;fillColor=#1ba1e2;strokeColor=#006EAF;" edge="1" parent="8YrW1Lh8n-N_oSTnDQjS-55">
          <mxGeometry width="50" height="50" relative="1" as="geometry">
            <mxPoint x="180" y="80.5" as="sourcePoint" />
            <mxPoint x="140" y="0.5" as="targetPoint" />
          </mxGeometry>
        </mxCell>
        <mxCell id="8YrW1Lh8n-N_oSTnDQjS-57" value="" style="endArrow=none;html=1;rounded=0;orthogonal=0;fillColor=#1ba1e2;strokeColor=#006EAF;" edge="1" parent="8YrW1Lh8n-N_oSTnDQjS-55">
          <mxGeometry width="50" height="50" relative="1" as="geometry">
            <mxPoint x="40" y="160.5" as="sourcePoint" />
            <mxPoint y="80.5" as="targetPoint" />
          </mxGeometry>
        </mxCell>
        <mxCell id="8YrW1Lh8n-N_oSTnDQjS-58" value="" style="endArrow=none;html=1;rounded=0;orthogonal=0;fillColor=#1ba1e2;strokeColor=#006EAF;" edge="1" parent="8YrW1Lh8n-N_oSTnDQjS-55">
          <mxGeometry width="50" height="50" relative="1" as="geometry">
            <mxPoint x="140" y="160.5" as="sourcePoint" />
            <mxPoint x="180" y="80.5" as="targetPoint" />
          </mxGeometry>
        </mxCell>
        <mxCell id="8YrW1Lh8n-N_oSTnDQjS-59" value="" style="endArrow=none;html=1;rounded=0;orthogonal=0;fillColor=#1ba1e2;strokeColor=#006EAF;" edge="1" parent="8YrW1Lh8n-N_oSTnDQjS-55">
          <mxGeometry width="50" height="50" relative="1" as="geometry">
            <mxPoint x="180" y="80.5" as="sourcePoint" />
            <mxPoint x="140" y="0.5" as="targetPoint" />
          </mxGeometry>
        </mxCell>
        <mxCell id="8YrW1Lh8n-N_oSTnDQjS-60" value="" style="endArrow=none;html=1;rounded=0;orthogonal=0;fillColor=#1ba1e2;strokeColor=#006EAF;" edge="1" parent="8YrW1Lh8n-N_oSTnDQjS-55">
          <mxGeometry width="50" height="50" relative="1" as="geometry">
            <mxPoint y="80.5" as="sourcePoint" />
            <mxPoint x="40" y="0.5" as="targetPoint" />
          </mxGeometry>
        </mxCell>
        <mxCell id="8YrW1Lh8n-N_oSTnDQjS-61" value="" style="endArrow=none;html=1;rounded=0;orthogonal=0;fillColor=#1ba1e2;strokeColor=#006EAF;" edge="1" parent="8YrW1Lh8n-N_oSTnDQjS-55">
          <mxGeometry width="50" height="50" relative="1" as="geometry">
            <mxPoint x="140" as="sourcePoint" />
            <mxPoint x="39" as="targetPoint" />
          </mxGeometry>
        </mxCell>
        <mxCell id="8YrW1Lh8n-N_oSTnDQjS-62" value="" style="endArrow=none;html=1;rounded=0;orthogonal=0;fillColor=#1ba1e2;strokeColor=#006EAF;" edge="1" parent="8YrW1Lh8n-N_oSTnDQjS-55">
          <mxGeometry width="50" height="50" relative="1" as="geometry">
            <mxPoint x="140" y="160.5" as="sourcePoint" />
            <mxPoint x="40" y="160.5" as="targetPoint" />
          </mxGeometry>
        </mxCell>
        <mxCell id="8YrW1Lh8n-N_oSTnDQjS-63" value="" style="endArrow=none;html=1;rounded=0;orthogonal=0;fillColor=#1ba1e2;strokeColor=#006EAF;" edge="1" parent="8YrW1Lh8n-N_oSTnDQjS-55">
          <mxGeometry width="50" height="50" relative="1" as="geometry">
            <mxPoint x="140" y="160" as="sourcePoint" />
            <mxPoint x="39" y="160" as="targetPoint" />
          </mxGeometry>
        </mxCell>
        <mxCell id="8YrW1Lh8n-N_oSTnDQjS-46" value="" style="group" vertex="1" connectable="0" parent="1">
          <mxGeometry x="520" y="150.5" width="320" height="368.96" as="geometry" />
        </mxCell>
        <mxCell id="8YrW1Lh8n-N_oSTnDQjS-47" value="" style="endArrow=none;html=1;rounded=0;orthogonal=0;fillColor=#1ba1e2;strokeColor=#006EAF;" edge="1" parent="8YrW1Lh8n-N_oSTnDQjS-46">
          <mxGeometry width="50" height="50" relative="1" as="geometry">
            <mxPoint x="180" y="80.5" as="sourcePoint" />
            <mxPoint x="140" y="0.5" as="targetPoint" />
          </mxGeometry>
        </mxCell>
        <mxCell id="8YrW1Lh8n-N_oSTnDQjS-48" value="" style="endArrow=none;html=1;rounded=0;orthogonal=0;fillColor=#1ba1e2;strokeColor=#006EAF;" edge="1" parent="8YrW1Lh8n-N_oSTnDQjS-46">
          <mxGeometry width="50" height="50" relative="1" as="geometry">
            <mxPoint x="40" y="160.5" as="sourcePoint" />
            <mxPoint y="80.5" as="targetPoint" />
          </mxGeometry>
        </mxCell>
        <mxCell id="8YrW1Lh8n-N_oSTnDQjS-49" value="" style="endArrow=none;html=1;rounded=0;orthogonal=0;fillColor=#1ba1e2;strokeColor=#006EAF;" edge="1" parent="8YrW1Lh8n-N_oSTnDQjS-46">
          <mxGeometry width="50" height="50" relative="1" as="geometry">
            <mxPoint x="140" y="160.5" as="sourcePoint" />
            <mxPoint x="180" y="80.5" as="targetPoint" />
          </mxGeometry>
        </mxCell>
        <mxCell id="8YrW1Lh8n-N_oSTnDQjS-50" value="" style="endArrow=none;html=1;rounded=0;orthogonal=0;fillColor=#1ba1e2;strokeColor=#006EAF;" edge="1" parent="8YrW1Lh8n-N_oSTnDQjS-46">
          <mxGeometry width="50" height="50" relative="1" as="geometry">
            <mxPoint x="180" y="80.5" as="sourcePoint" />
            <mxPoint x="140" y="0.5" as="targetPoint" />
          </mxGeometry>
        </mxCell>
        <mxCell id="8YrW1Lh8n-N_oSTnDQjS-51" value="" style="endArrow=none;html=1;rounded=0;orthogonal=0;fillColor=#1ba1e2;strokeColor=#006EAF;" edge="1" parent="8YrW1Lh8n-N_oSTnDQjS-46">
          <mxGeometry width="50" height="50" relative="1" as="geometry">
            <mxPoint y="80.5" as="sourcePoint" />
            <mxPoint x="40" y="0.5" as="targetPoint" />
          </mxGeometry>
        </mxCell>
        <mxCell id="8YrW1Lh8n-N_oSTnDQjS-52" value="" style="endArrow=none;html=1;rounded=0;orthogonal=0;fillColor=#1ba1e2;strokeColor=#006EAF;" edge="1" parent="8YrW1Lh8n-N_oSTnDQjS-46">
          <mxGeometry width="50" height="50" relative="1" as="geometry">
            <mxPoint x="140" as="sourcePoint" />
            <mxPoint x="39" as="targetPoint" />
          </mxGeometry>
        </mxCell>
        <mxCell id="8YrW1Lh8n-N_oSTnDQjS-53" value="" style="endArrow=none;html=1;rounded=0;orthogonal=0;fillColor=#1ba1e2;strokeColor=#006EAF;" edge="1" parent="8YrW1Lh8n-N_oSTnDQjS-46">
          <mxGeometry width="50" height="50" relative="1" as="geometry">
            <mxPoint x="140" y="160.5" as="sourcePoint" />
            <mxPoint x="40" y="160.5" as="targetPoint" />
          </mxGeometry>
        </mxCell>
        <mxCell id="8YrW1Lh8n-N_oSTnDQjS-54" value="" style="endArrow=none;html=1;rounded=0;orthogonal=0;fillColor=#1ba1e2;strokeColor=#006EAF;" edge="1" parent="8YrW1Lh8n-N_oSTnDQjS-46">
          <mxGeometry width="50" height="50" relative="1" as="geometry">
            <mxPoint x="140" y="160" as="sourcePoint" />
            <mxPoint x="39" y="160" as="targetPoint" />
          </mxGeometry>
        </mxCell>
        <mxCell id="8YrW1Lh8n-N_oSTnDQjS-64" value="" style="group" vertex="1" connectable="0" parent="1">
          <mxGeometry x="660" y="70" width="400" height="509.4599999999999" as="geometry" />
        </mxCell>
        <mxCell id="8YrW1Lh8n-N_oSTnDQjS-65" value="" style="endArrow=none;html=1;rounded=0;orthogonal=0;fillColor=#1ba1e2;strokeColor=#006EAF;" edge="1" parent="8YrW1Lh8n-N_oSTnDQjS-64">
          <mxGeometry width="50" height="50" relative="1" as="geometry">
            <mxPoint x="180" y="80.5" as="sourcePoint" />
            <mxPoint x="140" y="0.5" as="targetPoint" />
          </mxGeometry>
        </mxCell>
        <mxCell id="8YrW1Lh8n-N_oSTnDQjS-66" value="" style="endArrow=none;html=1;rounded=0;orthogonal=0;fillColor=#1ba1e2;strokeColor=#006EAF;" edge="1" parent="8YrW1Lh8n-N_oSTnDQjS-64">
          <mxGeometry width="50" height="50" relative="1" as="geometry">
            <mxPoint x="40" y="160.5" as="sourcePoint" />
            <mxPoint y="80.5" as="targetPoint" />
          </mxGeometry>
        </mxCell>
        <mxCell id="8YrW1Lh8n-N_oSTnDQjS-67" value="" style="endArrow=none;html=1;rounded=0;orthogonal=0;fillColor=#1ba1e2;strokeColor=#006EAF;" edge="1" parent="8YrW1Lh8n-N_oSTnDQjS-64">
          <mxGeometry width="50" height="50" relative="1" as="geometry">
            <mxPoint x="140" y="160.5" as="sourcePoint" />
            <mxPoint x="180" y="80.5" as="targetPoint" />
          </mxGeometry>
        </mxCell>
        <mxCell id="8YrW1Lh8n-N_oSTnDQjS-68" value="" style="endArrow=none;html=1;rounded=0;orthogonal=0;fillColor=#1ba1e2;strokeColor=#006EAF;" edge="1" parent="8YrW1Lh8n-N_oSTnDQjS-64">
          <mxGeometry width="50" height="50" relative="1" as="geometry">
            <mxPoint x="180" y="80.5" as="sourcePoint" />
            <mxPoint x="140" y="0.5" as="targetPoint" />
          </mxGeometry>
        </mxCell>
        <mxCell id="8YrW1Lh8n-N_oSTnDQjS-69" value="" style="endArrow=none;html=1;rounded=0;orthogonal=0;fillColor=#1ba1e2;strokeColor=#006EAF;" edge="1" parent="8YrW1Lh8n-N_oSTnDQjS-64">
          <mxGeometry width="50" height="50" relative="1" as="geometry">
            <mxPoint y="80.5" as="sourcePoint" />
            <mxPoint x="40" y="0.5" as="targetPoint" />
          </mxGeometry>
        </mxCell>
        <mxCell id="8YrW1Lh8n-N_oSTnDQjS-70" value="" style="endArrow=none;html=1;rounded=0;orthogonal=0;fillColor=#1ba1e2;strokeColor=#006EAF;" edge="1" parent="8YrW1Lh8n-N_oSTnDQjS-64">
          <mxGeometry width="50" height="50" relative="1" as="geometry">
            <mxPoint x="140" as="sourcePoint" />
            <mxPoint x="39" as="targetPoint" />
          </mxGeometry>
        </mxCell>
        <mxCell id="8YrW1Lh8n-N_oSTnDQjS-71" value="" style="endArrow=none;html=1;rounded=0;orthogonal=0;fillColor=#1ba1e2;strokeColor=#006EAF;" edge="1" parent="8YrW1Lh8n-N_oSTnDQjS-64">
          <mxGeometry width="50" height="50" relative="1" as="geometry">
            <mxPoint x="140" y="160.5" as="sourcePoint" />
            <mxPoint x="40" y="160.5" as="targetPoint" />
          </mxGeometry>
        </mxCell>
        <mxCell id="8YrW1Lh8n-N_oSTnDQjS-72" value="" style="endArrow=none;html=1;rounded=0;orthogonal=0;fillColor=#1ba1e2;strokeColor=#006EAF;" edge="1" parent="8YrW1Lh8n-N_oSTnDQjS-64">
          <mxGeometry width="50" height="50" relative="1" as="geometry">
            <mxPoint x="140" y="160" as="sourcePoint" />
            <mxPoint x="39" y="160" as="targetPoint" />
          </mxGeometry>
        </mxCell>
        <mxCell id="8YrW1Lh8n-N_oSTnDQjS-190" value="" style="group;aspect=fixed;" vertex="1" connectable="0" parent="8YrW1Lh8n-N_oSTnDQjS-64">
          <mxGeometry x="-330" y="90.5" width="156" height="139.14" as="geometry" />
        </mxCell>
        <mxCell id="8YrW1Lh8n-N_oSTnDQjS-191" value="" style="endArrow=none;html=1;rounded=0;orthogonal=0;" edge="1" parent="8YrW1Lh8n-N_oSTnDQjS-190">
          <mxGeometry width="50" height="50" relative="1" as="geometry">
            <mxPoint x="156" y="69.78672897196256" as="sourcePoint" />
            <mxPoint x="121.33333333333341" y="0.4334579439252335" as="targetPoint" />
          </mxGeometry>
        </mxCell>
        <mxCell id="8YrW1Lh8n-N_oSTnDQjS-192" value="" style="endArrow=none;html=1;rounded=0;orthogonal=0;" edge="1" parent="8YrW1Lh8n-N_oSTnDQjS-190">
          <mxGeometry width="50" height="50" relative="1" as="geometry">
            <mxPoint x="34.666666666666686" y="139.14" as="sourcePoint" />
            <mxPoint y="69.78672897196256" as="targetPoint" />
          </mxGeometry>
        </mxCell>
        <mxCell id="8YrW1Lh8n-N_oSTnDQjS-193" value="" style="endArrow=none;html=1;rounded=0;orthogonal=0;" edge="1" parent="8YrW1Lh8n-N_oSTnDQjS-190">
          <mxGeometry width="50" height="50" relative="1" as="geometry">
            <mxPoint x="121.33333333333341" y="139.14" as="sourcePoint" />
            <mxPoint x="156" y="69.78672897196256" as="targetPoint" />
          </mxGeometry>
        </mxCell>
        <mxCell id="8YrW1Lh8n-N_oSTnDQjS-194" value="" style="endArrow=none;html=1;rounded=0;orthogonal=0;" edge="1" parent="8YrW1Lh8n-N_oSTnDQjS-190">
          <mxGeometry width="50" height="50" relative="1" as="geometry">
            <mxPoint x="156" y="69.78672897196256" as="sourcePoint" />
            <mxPoint x="121.33333333333341" y="0.4334579439252335" as="targetPoint" />
          </mxGeometry>
        </mxCell>
        <mxCell id="8YrW1Lh8n-N_oSTnDQjS-195" value="" style="endArrow=none;html=1;rounded=0;orthogonal=0;" edge="1" parent="8YrW1Lh8n-N_oSTnDQjS-190">
          <mxGeometry width="50" height="50" relative="1" as="geometry">
            <mxPoint y="69.78672897196256" as="sourcePoint" />
            <mxPoint x="34.666666666666686" y="0.4334579439252335" as="targetPoint" />
          </mxGeometry>
        </mxCell>
        <mxCell id="8YrW1Lh8n-N_oSTnDQjS-196" value="" style="endArrow=none;html=1;rounded=0;orthogonal=0;" edge="1" parent="8YrW1Lh8n-N_oSTnDQjS-190">
          <mxGeometry width="50" height="50" relative="1" as="geometry">
            <mxPoint x="121.33333333333341" as="sourcePoint" />
            <mxPoint x="33.79999999999996" as="targetPoint" />
          </mxGeometry>
        </mxCell>
        <mxCell id="8YrW1Lh8n-N_oSTnDQjS-197" value="" style="endArrow=none;html=1;rounded=0;orthogonal=0;" edge="1" parent="8YrW1Lh8n-N_oSTnDQjS-190">
          <mxGeometry width="50" height="50" relative="1" as="geometry">
            <mxPoint x="121.33333333333341" y="139.14" as="sourcePoint" />
            <mxPoint x="34.666666666666686" y="139.14" as="targetPoint" />
          </mxGeometry>
        </mxCell>
        <mxCell id="8YrW1Lh8n-N_oSTnDQjS-198" value="" style="endArrow=none;html=1;rounded=0;orthogonal=0;" edge="1" parent="8YrW1Lh8n-N_oSTnDQjS-190">
          <mxGeometry width="50" height="50" relative="1" as="geometry">
            <mxPoint x="121.33333333333341" y="138.70654205607485" as="sourcePoint" />
            <mxPoint x="33.79999999999996" y="138.70654205607485" as="targetPoint" />
          </mxGeometry>
        </mxCell>
        <mxCell id="8YrW1Lh8n-N_oSTnDQjS-181" value="" style="group;aspect=fixed;" vertex="1" connectable="0" parent="8YrW1Lh8n-N_oSTnDQjS-64">
          <mxGeometry x="-330" y="231.18000000000006" width="156" height="278.27999999999986" as="geometry" />
        </mxCell>
        <mxCell id="8YrW1Lh8n-N_oSTnDQjS-182" value="" style="endArrow=none;html=1;rounded=0;orthogonal=0;" edge="1" parent="8YrW1Lh8n-N_oSTnDQjS-181">
          <mxGeometry width="50" height="50" relative="1" as="geometry">
            <mxPoint x="156" y="69.78672897196256" as="sourcePoint" />
            <mxPoint x="121.33333333333341" y="0.4334579439252335" as="targetPoint" />
          </mxGeometry>
        </mxCell>
        <mxCell id="8YrW1Lh8n-N_oSTnDQjS-183" value="" style="endArrow=none;html=1;rounded=0;orthogonal=0;" edge="1" parent="8YrW1Lh8n-N_oSTnDQjS-181">
          <mxGeometry width="50" height="50" relative="1" as="geometry">
            <mxPoint x="34.666666666666686" y="139.14" as="sourcePoint" />
            <mxPoint y="69.78672897196256" as="targetPoint" />
          </mxGeometry>
        </mxCell>
        <mxCell id="8YrW1Lh8n-N_oSTnDQjS-184" value="" style="endArrow=none;html=1;rounded=0;orthogonal=0;" edge="1" parent="8YrW1Lh8n-N_oSTnDQjS-181">
          <mxGeometry width="50" height="50" relative="1" as="geometry">
            <mxPoint x="121.33333333333341" y="139.14" as="sourcePoint" />
            <mxPoint x="156" y="69.78672897196256" as="targetPoint" />
          </mxGeometry>
        </mxCell>
        <mxCell id="8YrW1Lh8n-N_oSTnDQjS-185" value="" style="endArrow=none;html=1;rounded=0;orthogonal=0;" edge="1" parent="8YrW1Lh8n-N_oSTnDQjS-181">
          <mxGeometry width="50" height="50" relative="1" as="geometry">
            <mxPoint x="156" y="69.78672897196256" as="sourcePoint" />
            <mxPoint x="121.33333333333341" y="0.4334579439252335" as="targetPoint" />
          </mxGeometry>
        </mxCell>
        <mxCell id="8YrW1Lh8n-N_oSTnDQjS-186" value="" style="endArrow=none;html=1;rounded=0;orthogonal=0;" edge="1" parent="8YrW1Lh8n-N_oSTnDQjS-181">
          <mxGeometry width="50" height="50" relative="1" as="geometry">
            <mxPoint y="69.78672897196256" as="sourcePoint" />
            <mxPoint x="34.666666666666686" y="0.4334579439252335" as="targetPoint" />
          </mxGeometry>
        </mxCell>
        <mxCell id="8YrW1Lh8n-N_oSTnDQjS-187" value="" style="endArrow=none;html=1;rounded=0;orthogonal=0;" edge="1" parent="8YrW1Lh8n-N_oSTnDQjS-181">
          <mxGeometry width="50" height="50" relative="1" as="geometry">
            <mxPoint x="121.33333333333341" as="sourcePoint" />
            <mxPoint x="33.79999999999996" as="targetPoint" />
          </mxGeometry>
        </mxCell>
        <mxCell id="8YrW1Lh8n-N_oSTnDQjS-188" value="" style="endArrow=none;html=1;rounded=0;orthogonal=0;" edge="1" parent="8YrW1Lh8n-N_oSTnDQjS-181">
          <mxGeometry width="50" height="50" relative="1" as="geometry">
            <mxPoint x="121.33333333333341" y="139.14" as="sourcePoint" />
            <mxPoint x="34.666666666666686" y="139.14" as="targetPoint" />
          </mxGeometry>
        </mxCell>
        <mxCell id="8YrW1Lh8n-N_oSTnDQjS-189" value="" style="endArrow=none;html=1;rounded=0;orthogonal=0;" edge="1" parent="8YrW1Lh8n-N_oSTnDQjS-181">
          <mxGeometry width="50" height="50" relative="1" as="geometry">
            <mxPoint x="121.33333333333341" y="138.70654205607485" as="sourcePoint" />
            <mxPoint x="33.79999999999996" y="138.70654205607485" as="targetPoint" />
          </mxGeometry>
        </mxCell>
        <mxCell id="8YrW1Lh8n-N_oSTnDQjS-323" value="" style="group;aspect=fixed;" vertex="1" connectable="0" parent="8YrW1Lh8n-N_oSTnDQjS-181">
          <mxGeometry y="139.13999999999987" width="156" height="139.14" as="geometry" />
        </mxCell>
        <mxCell id="8YrW1Lh8n-N_oSTnDQjS-324" value="" style="endArrow=none;html=1;rounded=0;orthogonal=0;" edge="1" parent="8YrW1Lh8n-N_oSTnDQjS-323">
          <mxGeometry width="50" height="50" relative="1" as="geometry">
            <mxPoint x="156" y="69.78672897196256" as="sourcePoint" />
            <mxPoint x="121.33333333333341" y="0.4334579439252335" as="targetPoint" />
          </mxGeometry>
        </mxCell>
        <mxCell id="8YrW1Lh8n-N_oSTnDQjS-325" value="" style="endArrow=none;html=1;rounded=0;orthogonal=0;" edge="1" parent="8YrW1Lh8n-N_oSTnDQjS-323">
          <mxGeometry width="50" height="50" relative="1" as="geometry">
            <mxPoint x="34.666666666666686" y="139.14" as="sourcePoint" />
            <mxPoint y="69.78672897196256" as="targetPoint" />
          </mxGeometry>
        </mxCell>
        <mxCell id="8YrW1Lh8n-N_oSTnDQjS-326" value="" style="endArrow=none;html=1;rounded=0;orthogonal=0;" edge="1" parent="8YrW1Lh8n-N_oSTnDQjS-323">
          <mxGeometry width="50" height="50" relative="1" as="geometry">
            <mxPoint x="121.33333333333341" y="139.14" as="sourcePoint" />
            <mxPoint x="156" y="69.78672897196256" as="targetPoint" />
          </mxGeometry>
        </mxCell>
        <mxCell id="8YrW1Lh8n-N_oSTnDQjS-327" value="" style="endArrow=none;html=1;rounded=0;orthogonal=0;" edge="1" parent="8YrW1Lh8n-N_oSTnDQjS-323">
          <mxGeometry width="50" height="50" relative="1" as="geometry">
            <mxPoint x="156" y="69.78672897196256" as="sourcePoint" />
            <mxPoint x="121.33333333333341" y="0.4334579439252335" as="targetPoint" />
          </mxGeometry>
        </mxCell>
        <mxCell id="8YrW1Lh8n-N_oSTnDQjS-328" value="" style="endArrow=none;html=1;rounded=0;orthogonal=0;" edge="1" parent="8YrW1Lh8n-N_oSTnDQjS-323">
          <mxGeometry width="50" height="50" relative="1" as="geometry">
            <mxPoint y="69.78672897196256" as="sourcePoint" />
            <mxPoint x="34.666666666666686" y="0.4334579439252335" as="targetPoint" />
          </mxGeometry>
        </mxCell>
        <mxCell id="8YrW1Lh8n-N_oSTnDQjS-329" value="" style="endArrow=none;html=1;rounded=0;orthogonal=0;" edge="1" parent="8YrW1Lh8n-N_oSTnDQjS-323">
          <mxGeometry width="50" height="50" relative="1" as="geometry">
            <mxPoint x="121.33333333333341" as="sourcePoint" />
            <mxPoint x="33.79999999999996" as="targetPoint" />
          </mxGeometry>
        </mxCell>
        <mxCell id="8YrW1Lh8n-N_oSTnDQjS-330" value="" style="endArrow=none;html=1;rounded=0;orthogonal=0;" edge="1" parent="8YrW1Lh8n-N_oSTnDQjS-323">
          <mxGeometry width="50" height="50" relative="1" as="geometry">
            <mxPoint x="121.33333333333341" y="139.14" as="sourcePoint" />
            <mxPoint x="34.666666666666686" y="139.14" as="targetPoint" />
          </mxGeometry>
        </mxCell>
        <mxCell id="8YrW1Lh8n-N_oSTnDQjS-331" value="" style="endArrow=none;html=1;rounded=0;orthogonal=0;" edge="1" parent="8YrW1Lh8n-N_oSTnDQjS-323">
          <mxGeometry width="50" height="50" relative="1" as="geometry">
            <mxPoint x="121.33333333333341" y="138.70654205607485" as="sourcePoint" />
            <mxPoint x="33.79999999999996" y="138.70654205607485" as="targetPoint" />
          </mxGeometry>
        </mxCell>
        <mxCell id="8YrW1Lh8n-N_oSTnDQjS-226" value="" style="group;aspect=fixed;" vertex="1" connectable="0" parent="8YrW1Lh8n-N_oSTnDQjS-64">
          <mxGeometry x="-209" y="161.36" width="156" height="139.14" as="geometry" />
        </mxCell>
        <mxCell id="8YrW1Lh8n-N_oSTnDQjS-227" value="" style="endArrow=none;html=1;rounded=0;orthogonal=0;" edge="1" parent="8YrW1Lh8n-N_oSTnDQjS-226">
          <mxGeometry width="50" height="50" relative="1" as="geometry">
            <mxPoint x="156" y="69.78672897196256" as="sourcePoint" />
            <mxPoint x="121.33333333333341" y="0.4334579439252335" as="targetPoint" />
          </mxGeometry>
        </mxCell>
        <mxCell id="8YrW1Lh8n-N_oSTnDQjS-228" value="" style="endArrow=none;html=1;rounded=0;orthogonal=0;" edge="1" parent="8YrW1Lh8n-N_oSTnDQjS-226">
          <mxGeometry width="50" height="50" relative="1" as="geometry">
            <mxPoint x="34.666666666666686" y="139.14" as="sourcePoint" />
            <mxPoint y="69.78672897196256" as="targetPoint" />
          </mxGeometry>
        </mxCell>
        <mxCell id="8YrW1Lh8n-N_oSTnDQjS-229" value="" style="endArrow=none;html=1;rounded=0;orthogonal=0;" edge="1" parent="8YrW1Lh8n-N_oSTnDQjS-226">
          <mxGeometry width="50" height="50" relative="1" as="geometry">
            <mxPoint x="121.33333333333341" y="139.14" as="sourcePoint" />
            <mxPoint x="156" y="69.78672897196256" as="targetPoint" />
          </mxGeometry>
        </mxCell>
        <mxCell id="8YrW1Lh8n-N_oSTnDQjS-230" value="" style="endArrow=none;html=1;rounded=0;orthogonal=0;" edge="1" parent="8YrW1Lh8n-N_oSTnDQjS-226">
          <mxGeometry width="50" height="50" relative="1" as="geometry">
            <mxPoint x="156" y="69.78672897196256" as="sourcePoint" />
            <mxPoint x="121.33333333333341" y="0.4334579439252335" as="targetPoint" />
          </mxGeometry>
        </mxCell>
        <mxCell id="8YrW1Lh8n-N_oSTnDQjS-231" value="" style="endArrow=none;html=1;rounded=0;orthogonal=0;" edge="1" parent="8YrW1Lh8n-N_oSTnDQjS-226">
          <mxGeometry width="50" height="50" relative="1" as="geometry">
            <mxPoint y="69.78672897196256" as="sourcePoint" />
            <mxPoint x="34.666666666666686" y="0.4334579439252335" as="targetPoint" />
          </mxGeometry>
        </mxCell>
        <mxCell id="8YrW1Lh8n-N_oSTnDQjS-232" value="" style="endArrow=none;html=1;rounded=0;orthogonal=0;" edge="1" parent="8YrW1Lh8n-N_oSTnDQjS-226">
          <mxGeometry width="50" height="50" relative="1" as="geometry">
            <mxPoint x="121.33333333333341" as="sourcePoint" />
            <mxPoint x="33.79999999999996" as="targetPoint" />
          </mxGeometry>
        </mxCell>
        <mxCell id="8YrW1Lh8n-N_oSTnDQjS-233" value="" style="endArrow=none;html=1;rounded=0;orthogonal=0;" edge="1" parent="8YrW1Lh8n-N_oSTnDQjS-226">
          <mxGeometry width="50" height="50" relative="1" as="geometry">
            <mxPoint x="121.33333333333341" y="139.14" as="sourcePoint" />
            <mxPoint x="34.666666666666686" y="139.14" as="targetPoint" />
          </mxGeometry>
        </mxCell>
        <mxCell id="8YrW1Lh8n-N_oSTnDQjS-234" value="" style="endArrow=none;html=1;rounded=0;orthogonal=0;" edge="1" parent="8YrW1Lh8n-N_oSTnDQjS-226">
          <mxGeometry width="50" height="50" relative="1" as="geometry">
            <mxPoint x="121.33333333333341" y="138.70654205607485" as="sourcePoint" />
            <mxPoint x="33.79999999999996" y="138.70654205607485" as="targetPoint" />
          </mxGeometry>
        </mxCell>
        <mxCell id="8YrW1Lh8n-N_oSTnDQjS-208" value="" style="group;aspect=fixed;" vertex="1" connectable="0" parent="8YrW1Lh8n-N_oSTnDQjS-64">
          <mxGeometry x="-90" y="90.5" width="156" height="139.14" as="geometry" />
        </mxCell>
        <mxCell id="8YrW1Lh8n-N_oSTnDQjS-209" value="" style="endArrow=none;html=1;rounded=0;orthogonal=0;" edge="1" parent="8YrW1Lh8n-N_oSTnDQjS-208">
          <mxGeometry width="50" height="50" relative="1" as="geometry">
            <mxPoint x="156" y="69.78672897196256" as="sourcePoint" />
            <mxPoint x="121.33333333333341" y="0.4334579439252335" as="targetPoint" />
          </mxGeometry>
        </mxCell>
        <mxCell id="8YrW1Lh8n-N_oSTnDQjS-210" value="" style="endArrow=none;html=1;rounded=0;orthogonal=0;" edge="1" parent="8YrW1Lh8n-N_oSTnDQjS-208">
          <mxGeometry width="50" height="50" relative="1" as="geometry">
            <mxPoint x="34.666666666666686" y="139.14" as="sourcePoint" />
            <mxPoint y="69.78672897196256" as="targetPoint" />
          </mxGeometry>
        </mxCell>
        <mxCell id="8YrW1Lh8n-N_oSTnDQjS-211" value="" style="endArrow=none;html=1;rounded=0;orthogonal=0;" edge="1" parent="8YrW1Lh8n-N_oSTnDQjS-208">
          <mxGeometry width="50" height="50" relative="1" as="geometry">
            <mxPoint x="121.33333333333341" y="139.14" as="sourcePoint" />
            <mxPoint x="156" y="69.78672897196256" as="targetPoint" />
          </mxGeometry>
        </mxCell>
        <mxCell id="8YrW1Lh8n-N_oSTnDQjS-212" value="" style="endArrow=none;html=1;rounded=0;orthogonal=0;" edge="1" parent="8YrW1Lh8n-N_oSTnDQjS-208">
          <mxGeometry width="50" height="50" relative="1" as="geometry">
            <mxPoint x="156" y="69.78672897196256" as="sourcePoint" />
            <mxPoint x="121.33333333333341" y="0.4334579439252335" as="targetPoint" />
          </mxGeometry>
        </mxCell>
        <mxCell id="8YrW1Lh8n-N_oSTnDQjS-213" value="" style="endArrow=none;html=1;rounded=0;orthogonal=0;" edge="1" parent="8YrW1Lh8n-N_oSTnDQjS-208">
          <mxGeometry width="50" height="50" relative="1" as="geometry">
            <mxPoint y="69.78672897196256" as="sourcePoint" />
            <mxPoint x="34.666666666666686" y="0.4334579439252335" as="targetPoint" />
          </mxGeometry>
        </mxCell>
        <mxCell id="8YrW1Lh8n-N_oSTnDQjS-214" value="" style="endArrow=none;html=1;rounded=0;orthogonal=0;" edge="1" parent="8YrW1Lh8n-N_oSTnDQjS-208">
          <mxGeometry width="50" height="50" relative="1" as="geometry">
            <mxPoint x="121.33333333333341" as="sourcePoint" />
            <mxPoint x="33.79999999999996" as="targetPoint" />
          </mxGeometry>
        </mxCell>
        <mxCell id="8YrW1Lh8n-N_oSTnDQjS-215" value="" style="endArrow=none;html=1;rounded=0;orthogonal=0;" edge="1" parent="8YrW1Lh8n-N_oSTnDQjS-208">
          <mxGeometry width="50" height="50" relative="1" as="geometry">
            <mxPoint x="121.33333333333341" y="139.14" as="sourcePoint" />
            <mxPoint x="34.666666666666686" y="139.14" as="targetPoint" />
          </mxGeometry>
        </mxCell>
        <mxCell id="8YrW1Lh8n-N_oSTnDQjS-216" value="" style="endArrow=none;html=1;rounded=0;orthogonal=0;" edge="1" parent="8YrW1Lh8n-N_oSTnDQjS-208">
          <mxGeometry width="50" height="50" relative="1" as="geometry">
            <mxPoint x="121.33333333333341" y="138.70654205607485" as="sourcePoint" />
            <mxPoint x="33.79999999999996" y="138.70654205607485" as="targetPoint" />
          </mxGeometry>
        </mxCell>
        <mxCell id="8YrW1Lh8n-N_oSTnDQjS-217" value="" style="group;aspect=fixed;" vertex="1" connectable="0" parent="8YrW1Lh8n-N_oSTnDQjS-64">
          <mxGeometry x="-210" y="300.31999999999994" width="156" height="139.14" as="geometry" />
        </mxCell>
        <mxCell id="8YrW1Lh8n-N_oSTnDQjS-218" value="" style="endArrow=none;html=1;rounded=0;orthogonal=0;" edge="1" parent="8YrW1Lh8n-N_oSTnDQjS-217">
          <mxGeometry width="50" height="50" relative="1" as="geometry">
            <mxPoint x="156" y="69.78672897196256" as="sourcePoint" />
            <mxPoint x="121.33333333333341" y="0.4334579439252335" as="targetPoint" />
          </mxGeometry>
        </mxCell>
        <mxCell id="8YrW1Lh8n-N_oSTnDQjS-219" value="" style="endArrow=none;html=1;rounded=0;orthogonal=0;" edge="1" parent="8YrW1Lh8n-N_oSTnDQjS-217">
          <mxGeometry width="50" height="50" relative="1" as="geometry">
            <mxPoint x="34.666666666666686" y="139.14" as="sourcePoint" />
            <mxPoint y="69.78672897196256" as="targetPoint" />
          </mxGeometry>
        </mxCell>
        <mxCell id="8YrW1Lh8n-N_oSTnDQjS-220" value="" style="endArrow=none;html=1;rounded=0;orthogonal=0;" edge="1" parent="8YrW1Lh8n-N_oSTnDQjS-217">
          <mxGeometry width="50" height="50" relative="1" as="geometry">
            <mxPoint x="121.33333333333341" y="139.14" as="sourcePoint" />
            <mxPoint x="156" y="69.78672897196256" as="targetPoint" />
          </mxGeometry>
        </mxCell>
        <mxCell id="8YrW1Lh8n-N_oSTnDQjS-221" value="" style="endArrow=none;html=1;rounded=0;orthogonal=0;" edge="1" parent="8YrW1Lh8n-N_oSTnDQjS-217">
          <mxGeometry width="50" height="50" relative="1" as="geometry">
            <mxPoint x="156" y="69.78672897196256" as="sourcePoint" />
            <mxPoint x="121.33333333333341" y="0.4334579439252335" as="targetPoint" />
          </mxGeometry>
        </mxCell>
        <mxCell id="8YrW1Lh8n-N_oSTnDQjS-222" value="" style="endArrow=none;html=1;rounded=0;orthogonal=0;" edge="1" parent="8YrW1Lh8n-N_oSTnDQjS-217">
          <mxGeometry width="50" height="50" relative="1" as="geometry">
            <mxPoint y="69.78672897196256" as="sourcePoint" />
            <mxPoint x="34.666666666666686" y="0.4334579439252335" as="targetPoint" />
          </mxGeometry>
        </mxCell>
        <mxCell id="8YrW1Lh8n-N_oSTnDQjS-223" value="" style="endArrow=none;html=1;rounded=0;orthogonal=0;" edge="1" parent="8YrW1Lh8n-N_oSTnDQjS-217">
          <mxGeometry width="50" height="50" relative="1" as="geometry">
            <mxPoint x="121.33333333333341" as="sourcePoint" />
            <mxPoint x="33.79999999999996" as="targetPoint" />
          </mxGeometry>
        </mxCell>
        <mxCell id="8YrW1Lh8n-N_oSTnDQjS-224" value="" style="endArrow=none;html=1;rounded=0;orthogonal=0;" edge="1" parent="8YrW1Lh8n-N_oSTnDQjS-217">
          <mxGeometry width="50" height="50" relative="1" as="geometry">
            <mxPoint x="121.33333333333341" y="139.14" as="sourcePoint" />
            <mxPoint x="34.666666666666686" y="139.14" as="targetPoint" />
          </mxGeometry>
        </mxCell>
        <mxCell id="8YrW1Lh8n-N_oSTnDQjS-225" value="" style="endArrow=none;html=1;rounded=0;orthogonal=0;" edge="1" parent="8YrW1Lh8n-N_oSTnDQjS-217">
          <mxGeometry width="50" height="50" relative="1" as="geometry">
            <mxPoint x="121.33333333333341" y="138.70654205607485" as="sourcePoint" />
            <mxPoint x="33.79999999999996" y="138.70654205607485" as="targetPoint" />
          </mxGeometry>
        </mxCell>
        <mxCell id="8YrW1Lh8n-N_oSTnDQjS-172" value="" style="group;aspect=fixed;" vertex="1" connectable="0" parent="8YrW1Lh8n-N_oSTnDQjS-64">
          <mxGeometry x="-90" y="230.5" width="156" height="139.14" as="geometry" />
        </mxCell>
        <mxCell id="8YrW1Lh8n-N_oSTnDQjS-173" value="" style="endArrow=none;html=1;rounded=0;orthogonal=0;" edge="1" parent="8YrW1Lh8n-N_oSTnDQjS-172">
          <mxGeometry width="50" height="50" relative="1" as="geometry">
            <mxPoint x="156" y="69.78672897196256" as="sourcePoint" />
            <mxPoint x="121.33333333333341" y="0.4334579439252335" as="targetPoint" />
          </mxGeometry>
        </mxCell>
        <mxCell id="8YrW1Lh8n-N_oSTnDQjS-174" value="" style="endArrow=none;html=1;rounded=0;orthogonal=0;" edge="1" parent="8YrW1Lh8n-N_oSTnDQjS-172">
          <mxGeometry width="50" height="50" relative="1" as="geometry">
            <mxPoint x="34.666666666666686" y="139.14" as="sourcePoint" />
            <mxPoint y="69.78672897196256" as="targetPoint" />
          </mxGeometry>
        </mxCell>
        <mxCell id="8YrW1Lh8n-N_oSTnDQjS-175" value="" style="endArrow=none;html=1;rounded=0;orthogonal=0;" edge="1" parent="8YrW1Lh8n-N_oSTnDQjS-172">
          <mxGeometry width="50" height="50" relative="1" as="geometry">
            <mxPoint x="121.33333333333341" y="139.14" as="sourcePoint" />
            <mxPoint x="156" y="69.78672897196256" as="targetPoint" />
          </mxGeometry>
        </mxCell>
        <mxCell id="8YrW1Lh8n-N_oSTnDQjS-176" value="" style="endArrow=none;html=1;rounded=0;orthogonal=0;" edge="1" parent="8YrW1Lh8n-N_oSTnDQjS-172">
          <mxGeometry width="50" height="50" relative="1" as="geometry">
            <mxPoint x="156" y="69.78672897196256" as="sourcePoint" />
            <mxPoint x="121.33333333333341" y="0.4334579439252335" as="targetPoint" />
          </mxGeometry>
        </mxCell>
        <mxCell id="8YrW1Lh8n-N_oSTnDQjS-177" value="" style="endArrow=none;html=1;rounded=0;orthogonal=0;" edge="1" parent="8YrW1Lh8n-N_oSTnDQjS-172">
          <mxGeometry width="50" height="50" relative="1" as="geometry">
            <mxPoint y="69.78672897196256" as="sourcePoint" />
            <mxPoint x="34.666666666666686" y="0.4334579439252335" as="targetPoint" />
          </mxGeometry>
        </mxCell>
        <mxCell id="8YrW1Lh8n-N_oSTnDQjS-178" value="" style="endArrow=none;html=1;rounded=0;orthogonal=0;" edge="1" parent="8YrW1Lh8n-N_oSTnDQjS-172">
          <mxGeometry width="50" height="50" relative="1" as="geometry">
            <mxPoint x="121.33333333333341" as="sourcePoint" />
            <mxPoint x="33.79999999999996" as="targetPoint" />
          </mxGeometry>
        </mxCell>
        <mxCell id="8YrW1Lh8n-N_oSTnDQjS-179" value="" style="endArrow=none;html=1;rounded=0;orthogonal=0;" edge="1" parent="8YrW1Lh8n-N_oSTnDQjS-172">
          <mxGeometry width="50" height="50" relative="1" as="geometry">
            <mxPoint x="121.33333333333341" y="139.14" as="sourcePoint" />
            <mxPoint x="34.666666666666686" y="139.14" as="targetPoint" />
          </mxGeometry>
        </mxCell>
        <mxCell id="8YrW1Lh8n-N_oSTnDQjS-180" value="" style="endArrow=none;html=1;rounded=0;orthogonal=0;" edge="1" parent="8YrW1Lh8n-N_oSTnDQjS-172">
          <mxGeometry width="50" height="50" relative="1" as="geometry">
            <mxPoint x="121.33333333333341" y="138.70654205607485" as="sourcePoint" />
            <mxPoint x="33.79999999999996" y="138.70654205607485" as="targetPoint" />
          </mxGeometry>
        </mxCell>
        <mxCell id="8YrW1Lh8n-N_oSTnDQjS-37" value="" style="group" vertex="1" connectable="0" parent="8YrW1Lh8n-N_oSTnDQjS-64">
          <mxGeometry x="20" y="150.5" width="180" height="288.96" as="geometry" />
        </mxCell>
        <mxCell id="8YrW1Lh8n-N_oSTnDQjS-154" value="" style="group;aspect=fixed;" vertex="1" connectable="0" parent="8YrW1Lh8n-N_oSTnDQjS-37">
          <mxGeometry x="12" y="10.680000000000007" width="156" height="278.28" as="geometry" />
        </mxCell>
        <mxCell id="8YrW1Lh8n-N_oSTnDQjS-155" value="" style="endArrow=none;html=1;rounded=0;orthogonal=0;" edge="1" parent="8YrW1Lh8n-N_oSTnDQjS-154">
          <mxGeometry width="50" height="50" relative="1" as="geometry">
            <mxPoint x="156" y="69.78672897196256" as="sourcePoint" />
            <mxPoint x="121.33333333333341" y="0.4334579439252335" as="targetPoint" />
          </mxGeometry>
        </mxCell>
        <mxCell id="8YrW1Lh8n-N_oSTnDQjS-156" value="" style="endArrow=none;html=1;rounded=0;orthogonal=0;" edge="1" parent="8YrW1Lh8n-N_oSTnDQjS-154">
          <mxGeometry width="50" height="50" relative="1" as="geometry">
            <mxPoint x="34.666666666666686" y="139.14" as="sourcePoint" />
            <mxPoint y="69.78672897196256" as="targetPoint" />
          </mxGeometry>
        </mxCell>
        <mxCell id="8YrW1Lh8n-N_oSTnDQjS-157" value="" style="endArrow=none;html=1;rounded=0;orthogonal=0;" edge="1" parent="8YrW1Lh8n-N_oSTnDQjS-154">
          <mxGeometry width="50" height="50" relative="1" as="geometry">
            <mxPoint x="121.33333333333341" y="139.14" as="sourcePoint" />
            <mxPoint x="156" y="69.78672897196256" as="targetPoint" />
          </mxGeometry>
        </mxCell>
        <mxCell id="8YrW1Lh8n-N_oSTnDQjS-158" value="" style="endArrow=none;html=1;rounded=0;orthogonal=0;" edge="1" parent="8YrW1Lh8n-N_oSTnDQjS-154">
          <mxGeometry width="50" height="50" relative="1" as="geometry">
            <mxPoint x="156" y="69.78672897196256" as="sourcePoint" />
            <mxPoint x="121.33333333333341" y="0.4334579439252335" as="targetPoint" />
          </mxGeometry>
        </mxCell>
        <mxCell id="8YrW1Lh8n-N_oSTnDQjS-159" value="" style="endArrow=none;html=1;rounded=0;orthogonal=0;" edge="1" parent="8YrW1Lh8n-N_oSTnDQjS-154">
          <mxGeometry width="50" height="50" relative="1" as="geometry">
            <mxPoint y="69.78672897196256" as="sourcePoint" />
            <mxPoint x="34.666666666666686" y="0.4334579439252335" as="targetPoint" />
          </mxGeometry>
        </mxCell>
        <mxCell id="8YrW1Lh8n-N_oSTnDQjS-160" value="" style="endArrow=none;html=1;rounded=0;orthogonal=0;" edge="1" parent="8YrW1Lh8n-N_oSTnDQjS-154">
          <mxGeometry width="50" height="50" relative="1" as="geometry">
            <mxPoint x="121.33333333333341" as="sourcePoint" />
            <mxPoint x="33.79999999999996" as="targetPoint" />
          </mxGeometry>
        </mxCell>
        <mxCell id="8YrW1Lh8n-N_oSTnDQjS-161" value="" style="endArrow=none;html=1;rounded=0;orthogonal=0;" edge="1" parent="8YrW1Lh8n-N_oSTnDQjS-154">
          <mxGeometry width="50" height="50" relative="1" as="geometry">
            <mxPoint x="121.33333333333341" y="139.14" as="sourcePoint" />
            <mxPoint x="34.666666666666686" y="139.14" as="targetPoint" />
          </mxGeometry>
        </mxCell>
        <mxCell id="8YrW1Lh8n-N_oSTnDQjS-162" value="" style="endArrow=none;html=1;rounded=0;orthogonal=0;" edge="1" parent="8YrW1Lh8n-N_oSTnDQjS-154">
          <mxGeometry width="50" height="50" relative="1" as="geometry">
            <mxPoint x="121.33333333333341" y="138.70654205607485" as="sourcePoint" />
            <mxPoint x="33.79999999999996" y="138.70654205607485" as="targetPoint" />
          </mxGeometry>
        </mxCell>
        <mxCell id="8YrW1Lh8n-N_oSTnDQjS-163" value="" style="group;aspect=fixed;" vertex="1" connectable="0" parent="8YrW1Lh8n-N_oSTnDQjS-154">
          <mxGeometry y="139.14" width="156" height="139.14" as="geometry" />
        </mxCell>
        <mxCell id="8YrW1Lh8n-N_oSTnDQjS-164" value="" style="endArrow=none;html=1;rounded=0;orthogonal=0;" edge="1" parent="8YrW1Lh8n-N_oSTnDQjS-163">
          <mxGeometry width="50" height="50" relative="1" as="geometry">
            <mxPoint x="156" y="69.78672897196256" as="sourcePoint" />
            <mxPoint x="121.33333333333341" y="0.4334579439252335" as="targetPoint" />
          </mxGeometry>
        </mxCell>
        <mxCell id="8YrW1Lh8n-N_oSTnDQjS-165" value="" style="endArrow=none;html=1;rounded=0;orthogonal=0;" edge="1" parent="8YrW1Lh8n-N_oSTnDQjS-163">
          <mxGeometry width="50" height="50" relative="1" as="geometry">
            <mxPoint x="34.666666666666686" y="139.14" as="sourcePoint" />
            <mxPoint y="69.78672897196256" as="targetPoint" />
          </mxGeometry>
        </mxCell>
        <mxCell id="8YrW1Lh8n-N_oSTnDQjS-166" value="" style="endArrow=none;html=1;rounded=0;orthogonal=0;" edge="1" parent="8YrW1Lh8n-N_oSTnDQjS-163">
          <mxGeometry width="50" height="50" relative="1" as="geometry">
            <mxPoint x="121.33333333333341" y="139.14" as="sourcePoint" />
            <mxPoint x="156" y="69.78672897196256" as="targetPoint" />
          </mxGeometry>
        </mxCell>
        <mxCell id="8YrW1Lh8n-N_oSTnDQjS-167" value="" style="endArrow=none;html=1;rounded=0;orthogonal=0;" edge="1" parent="8YrW1Lh8n-N_oSTnDQjS-163">
          <mxGeometry width="50" height="50" relative="1" as="geometry">
            <mxPoint x="156" y="69.78672897196256" as="sourcePoint" />
            <mxPoint x="121.33333333333341" y="0.4334579439252335" as="targetPoint" />
          </mxGeometry>
        </mxCell>
        <mxCell id="8YrW1Lh8n-N_oSTnDQjS-168" value="" style="endArrow=none;html=1;rounded=0;orthogonal=0;" edge="1" parent="8YrW1Lh8n-N_oSTnDQjS-163">
          <mxGeometry width="50" height="50" relative="1" as="geometry">
            <mxPoint y="69.78672897196256" as="sourcePoint" />
            <mxPoint x="34.666666666666686" y="0.4334579439252335" as="targetPoint" />
          </mxGeometry>
        </mxCell>
        <mxCell id="8YrW1Lh8n-N_oSTnDQjS-169" value="" style="endArrow=none;html=1;rounded=0;orthogonal=0;" edge="1" parent="8YrW1Lh8n-N_oSTnDQjS-163">
          <mxGeometry width="50" height="50" relative="1" as="geometry">
            <mxPoint x="121.33333333333341" as="sourcePoint" />
            <mxPoint x="33.79999999999996" as="targetPoint" />
          </mxGeometry>
        </mxCell>
        <mxCell id="8YrW1Lh8n-N_oSTnDQjS-170" value="" style="endArrow=none;html=1;rounded=0;orthogonal=0;" edge="1" parent="8YrW1Lh8n-N_oSTnDQjS-163">
          <mxGeometry width="50" height="50" relative="1" as="geometry">
            <mxPoint x="121.33333333333341" y="139.14" as="sourcePoint" />
            <mxPoint x="34.666666666666686" y="139.14" as="targetPoint" />
          </mxGeometry>
        </mxCell>
        <mxCell id="8YrW1Lh8n-N_oSTnDQjS-171" value="" style="endArrow=none;html=1;rounded=0;orthogonal=0;" edge="1" parent="8YrW1Lh8n-N_oSTnDQjS-163">
          <mxGeometry width="50" height="50" relative="1" as="geometry">
            <mxPoint x="121.33333333333341" y="138.70654205607485" as="sourcePoint" />
            <mxPoint x="33.79999999999996" y="138.70654205607485" as="targetPoint" />
          </mxGeometry>
        </mxCell>
        <mxCell id="8YrW1Lh8n-N_oSTnDQjS-286" value="" style="group;aspect=fixed;" vertex="1" connectable="0" parent="8YrW1Lh8n-N_oSTnDQjS-64">
          <mxGeometry x="-210" y="20.5" width="156" height="139.14" as="geometry" />
        </mxCell>
        <mxCell id="8YrW1Lh8n-N_oSTnDQjS-287" value="" style="endArrow=none;html=1;rounded=0;orthogonal=0;" edge="1" parent="8YrW1Lh8n-N_oSTnDQjS-286">
          <mxGeometry width="50" height="50" relative="1" as="geometry">
            <mxPoint x="156" y="69.78672897196256" as="sourcePoint" />
            <mxPoint x="121.33333333333341" y="0.4334579439252335" as="targetPoint" />
          </mxGeometry>
        </mxCell>
        <mxCell id="8YrW1Lh8n-N_oSTnDQjS-288" value="" style="endArrow=none;html=1;rounded=0;orthogonal=0;" edge="1" parent="8YrW1Lh8n-N_oSTnDQjS-286">
          <mxGeometry width="50" height="50" relative="1" as="geometry">
            <mxPoint x="34.666666666666686" y="139.14" as="sourcePoint" />
            <mxPoint y="69.78672897196256" as="targetPoint" />
          </mxGeometry>
        </mxCell>
        <mxCell id="8YrW1Lh8n-N_oSTnDQjS-289" value="" style="endArrow=none;html=1;rounded=0;orthogonal=0;" edge="1" parent="8YrW1Lh8n-N_oSTnDQjS-286">
          <mxGeometry width="50" height="50" relative="1" as="geometry">
            <mxPoint x="121.33333333333341" y="139.14" as="sourcePoint" />
            <mxPoint x="156" y="69.78672897196256" as="targetPoint" />
          </mxGeometry>
        </mxCell>
        <mxCell id="8YrW1Lh8n-N_oSTnDQjS-290" value="" style="endArrow=none;html=1;rounded=0;orthogonal=0;" edge="1" parent="8YrW1Lh8n-N_oSTnDQjS-286">
          <mxGeometry width="50" height="50" relative="1" as="geometry">
            <mxPoint x="156" y="69.78672897196256" as="sourcePoint" />
            <mxPoint x="121.33333333333341" y="0.4334579439252335" as="targetPoint" />
          </mxGeometry>
        </mxCell>
        <mxCell id="8YrW1Lh8n-N_oSTnDQjS-291" value="" style="endArrow=none;html=1;rounded=0;orthogonal=0;" edge="1" parent="8YrW1Lh8n-N_oSTnDQjS-286">
          <mxGeometry width="50" height="50" relative="1" as="geometry">
            <mxPoint y="69.78672897196256" as="sourcePoint" />
            <mxPoint x="34.666666666666686" y="0.4334579439252335" as="targetPoint" />
          </mxGeometry>
        </mxCell>
        <mxCell id="8YrW1Lh8n-N_oSTnDQjS-292" value="" style="endArrow=none;html=1;rounded=0;orthogonal=0;" edge="1" parent="8YrW1Lh8n-N_oSTnDQjS-286">
          <mxGeometry width="50" height="50" relative="1" as="geometry">
            <mxPoint x="121.33333333333341" as="sourcePoint" />
            <mxPoint x="33.79999999999996" as="targetPoint" />
          </mxGeometry>
        </mxCell>
        <mxCell id="8YrW1Lh8n-N_oSTnDQjS-293" value="" style="endArrow=none;html=1;rounded=0;orthogonal=0;" edge="1" parent="8YrW1Lh8n-N_oSTnDQjS-286">
          <mxGeometry width="50" height="50" relative="1" as="geometry">
            <mxPoint x="121.33333333333341" y="139.14" as="sourcePoint" />
            <mxPoint x="34.666666666666686" y="139.14" as="targetPoint" />
          </mxGeometry>
        </mxCell>
        <mxCell id="8YrW1Lh8n-N_oSTnDQjS-294" value="" style="endArrow=none;html=1;rounded=0;orthogonal=0;" edge="1" parent="8YrW1Lh8n-N_oSTnDQjS-286">
          <mxGeometry width="50" height="50" relative="1" as="geometry">
            <mxPoint x="121.33333333333341" y="138.70654205607485" as="sourcePoint" />
            <mxPoint x="33.79999999999996" y="138.70654205607485" as="targetPoint" />
          </mxGeometry>
        </mxCell>
        <mxCell id="8YrW1Lh8n-N_oSTnDQjS-314" value="" style="group;aspect=fixed;" vertex="1" connectable="0" parent="8YrW1Lh8n-N_oSTnDQjS-64">
          <mxGeometry x="32" y="20.5" width="156" height="139.14" as="geometry" />
        </mxCell>
        <mxCell id="8YrW1Lh8n-N_oSTnDQjS-315" value="" style="endArrow=none;html=1;rounded=0;orthogonal=0;" edge="1" parent="8YrW1Lh8n-N_oSTnDQjS-314">
          <mxGeometry width="50" height="50" relative="1" as="geometry">
            <mxPoint x="156" y="69.78672897196256" as="sourcePoint" />
            <mxPoint x="121.33333333333341" y="0.4334579439252335" as="targetPoint" />
          </mxGeometry>
        </mxCell>
        <mxCell id="8YrW1Lh8n-N_oSTnDQjS-316" value="" style="endArrow=none;html=1;rounded=0;orthogonal=0;" edge="1" parent="8YrW1Lh8n-N_oSTnDQjS-314">
          <mxGeometry width="50" height="50" relative="1" as="geometry">
            <mxPoint x="34.666666666666686" y="139.14" as="sourcePoint" />
            <mxPoint y="69.78672897196256" as="targetPoint" />
          </mxGeometry>
        </mxCell>
        <mxCell id="8YrW1Lh8n-N_oSTnDQjS-317" value="" style="endArrow=none;html=1;rounded=0;orthogonal=0;" edge="1" parent="8YrW1Lh8n-N_oSTnDQjS-314">
          <mxGeometry width="50" height="50" relative="1" as="geometry">
            <mxPoint x="121.33333333333341" y="139.14" as="sourcePoint" />
            <mxPoint x="156" y="69.78672897196256" as="targetPoint" />
          </mxGeometry>
        </mxCell>
        <mxCell id="8YrW1Lh8n-N_oSTnDQjS-318" value="" style="endArrow=none;html=1;rounded=0;orthogonal=0;" edge="1" parent="8YrW1Lh8n-N_oSTnDQjS-314">
          <mxGeometry width="50" height="50" relative="1" as="geometry">
            <mxPoint x="156" y="69.78672897196256" as="sourcePoint" />
            <mxPoint x="121.33333333333341" y="0.4334579439252335" as="targetPoint" />
          </mxGeometry>
        </mxCell>
        <mxCell id="8YrW1Lh8n-N_oSTnDQjS-319" value="" style="endArrow=none;html=1;rounded=0;orthogonal=0;" edge="1" parent="8YrW1Lh8n-N_oSTnDQjS-314">
          <mxGeometry width="50" height="50" relative="1" as="geometry">
            <mxPoint y="69.78672897196256" as="sourcePoint" />
            <mxPoint x="34.666666666666686" y="0.4334579439252335" as="targetPoint" />
          </mxGeometry>
        </mxCell>
        <mxCell id="8YrW1Lh8n-N_oSTnDQjS-320" value="" style="endArrow=none;html=1;rounded=0;orthogonal=0;" edge="1" parent="8YrW1Lh8n-N_oSTnDQjS-314">
          <mxGeometry width="50" height="50" relative="1" as="geometry">
            <mxPoint x="121.33333333333341" as="sourcePoint" />
            <mxPoint x="33.79999999999996" as="targetPoint" />
          </mxGeometry>
        </mxCell>
        <mxCell id="8YrW1Lh8n-N_oSTnDQjS-321" value="" style="endArrow=none;html=1;rounded=0;orthogonal=0;" edge="1" parent="8YrW1Lh8n-N_oSTnDQjS-314">
          <mxGeometry width="50" height="50" relative="1" as="geometry">
            <mxPoint x="121.33333333333341" y="139.14" as="sourcePoint" />
            <mxPoint x="34.666666666666686" y="139.14" as="targetPoint" />
          </mxGeometry>
        </mxCell>
        <mxCell id="8YrW1Lh8n-N_oSTnDQjS-322" value="" style="endArrow=none;html=1;rounded=0;orthogonal=0;" edge="1" parent="8YrW1Lh8n-N_oSTnDQjS-314">
          <mxGeometry width="50" height="50" relative="1" as="geometry">
            <mxPoint x="121.33333333333341" y="138.70654205607485" as="sourcePoint" />
            <mxPoint x="33.79999999999996" y="138.70654205607485" as="targetPoint" />
          </mxGeometry>
        </mxCell>
        <mxCell id="8YrW1Lh8n-N_oSTnDQjS-295" value="" style="group" vertex="1" connectable="0" parent="8YrW1Lh8n-N_oSTnDQjS-64">
          <mxGeometry x="140" y="80.67999999999995" width="180" height="288.96" as="geometry" />
        </mxCell>
        <mxCell id="8YrW1Lh8n-N_oSTnDQjS-296" value="" style="group;aspect=fixed;" vertex="1" connectable="0" parent="8YrW1Lh8n-N_oSTnDQjS-295">
          <mxGeometry x="12" y="10.680000000000007" width="156" height="278.28" as="geometry" />
        </mxCell>
        <mxCell id="8YrW1Lh8n-N_oSTnDQjS-297" value="" style="endArrow=none;html=1;rounded=0;orthogonal=0;" edge="1" parent="8YrW1Lh8n-N_oSTnDQjS-296">
          <mxGeometry width="50" height="50" relative="1" as="geometry">
            <mxPoint x="156" y="69.78672897196256" as="sourcePoint" />
            <mxPoint x="121.33333333333341" y="0.4334579439252335" as="targetPoint" />
          </mxGeometry>
        </mxCell>
        <mxCell id="8YrW1Lh8n-N_oSTnDQjS-298" value="" style="endArrow=none;html=1;rounded=0;orthogonal=0;" edge="1" parent="8YrW1Lh8n-N_oSTnDQjS-296">
          <mxGeometry width="50" height="50" relative="1" as="geometry">
            <mxPoint x="34.666666666666686" y="139.14" as="sourcePoint" />
            <mxPoint y="69.78672897196256" as="targetPoint" />
          </mxGeometry>
        </mxCell>
        <mxCell id="8YrW1Lh8n-N_oSTnDQjS-299" value="" style="endArrow=none;html=1;rounded=0;orthogonal=0;" edge="1" parent="8YrW1Lh8n-N_oSTnDQjS-296">
          <mxGeometry width="50" height="50" relative="1" as="geometry">
            <mxPoint x="121.33333333333341" y="139.14" as="sourcePoint" />
            <mxPoint x="156" y="69.78672897196256" as="targetPoint" />
          </mxGeometry>
        </mxCell>
        <mxCell id="8YrW1Lh8n-N_oSTnDQjS-300" value="" style="endArrow=none;html=1;rounded=0;orthogonal=0;" edge="1" parent="8YrW1Lh8n-N_oSTnDQjS-296">
          <mxGeometry width="50" height="50" relative="1" as="geometry">
            <mxPoint x="156" y="69.78672897196256" as="sourcePoint" />
            <mxPoint x="121.33333333333341" y="0.4334579439252335" as="targetPoint" />
          </mxGeometry>
        </mxCell>
        <mxCell id="8YrW1Lh8n-N_oSTnDQjS-301" value="" style="endArrow=none;html=1;rounded=0;orthogonal=0;" edge="1" parent="8YrW1Lh8n-N_oSTnDQjS-296">
          <mxGeometry width="50" height="50" relative="1" as="geometry">
            <mxPoint y="69.78672897196256" as="sourcePoint" />
            <mxPoint x="34.666666666666686" y="0.4334579439252335" as="targetPoint" />
          </mxGeometry>
        </mxCell>
        <mxCell id="8YrW1Lh8n-N_oSTnDQjS-302" value="" style="endArrow=none;html=1;rounded=0;orthogonal=0;" edge="1" parent="8YrW1Lh8n-N_oSTnDQjS-296">
          <mxGeometry width="50" height="50" relative="1" as="geometry">
            <mxPoint x="121.33333333333341" as="sourcePoint" />
            <mxPoint x="33.79999999999996" as="targetPoint" />
          </mxGeometry>
        </mxCell>
        <mxCell id="8YrW1Lh8n-N_oSTnDQjS-303" value="" style="endArrow=none;html=1;rounded=0;orthogonal=0;" edge="1" parent="8YrW1Lh8n-N_oSTnDQjS-296">
          <mxGeometry width="50" height="50" relative="1" as="geometry">
            <mxPoint x="121.33333333333341" y="139.14" as="sourcePoint" />
            <mxPoint x="34.666666666666686" y="139.14" as="targetPoint" />
          </mxGeometry>
        </mxCell>
        <mxCell id="8YrW1Lh8n-N_oSTnDQjS-304" value="" style="endArrow=none;html=1;rounded=0;orthogonal=0;" edge="1" parent="8YrW1Lh8n-N_oSTnDQjS-296">
          <mxGeometry width="50" height="50" relative="1" as="geometry">
            <mxPoint x="121.33333333333341" y="138.70654205607485" as="sourcePoint" />
            <mxPoint x="33.79999999999996" y="138.70654205607485" as="targetPoint" />
          </mxGeometry>
        </mxCell>
        <mxCell id="8YrW1Lh8n-N_oSTnDQjS-305" value="" style="group;aspect=fixed;" vertex="1" connectable="0" parent="8YrW1Lh8n-N_oSTnDQjS-296">
          <mxGeometry y="139.14" width="156" height="139.14" as="geometry" />
        </mxCell>
        <mxCell id="8YrW1Lh8n-N_oSTnDQjS-306" value="" style="endArrow=none;html=1;rounded=0;orthogonal=0;" edge="1" parent="8YrW1Lh8n-N_oSTnDQjS-305">
          <mxGeometry width="50" height="50" relative="1" as="geometry">
            <mxPoint x="156" y="69.78672897196256" as="sourcePoint" />
            <mxPoint x="121.33333333333341" y="0.4334579439252335" as="targetPoint" />
          </mxGeometry>
        </mxCell>
        <mxCell id="8YrW1Lh8n-N_oSTnDQjS-307" value="" style="endArrow=none;html=1;rounded=0;orthogonal=0;" edge="1" parent="8YrW1Lh8n-N_oSTnDQjS-305">
          <mxGeometry width="50" height="50" relative="1" as="geometry">
            <mxPoint x="34.666666666666686" y="139.14" as="sourcePoint" />
            <mxPoint y="69.78672897196256" as="targetPoint" />
          </mxGeometry>
        </mxCell>
        <mxCell id="8YrW1Lh8n-N_oSTnDQjS-308" value="" style="endArrow=none;html=1;rounded=0;orthogonal=0;" edge="1" parent="8YrW1Lh8n-N_oSTnDQjS-305">
          <mxGeometry width="50" height="50" relative="1" as="geometry">
            <mxPoint x="121.33333333333341" y="139.14" as="sourcePoint" />
            <mxPoint x="156" y="69.78672897196256" as="targetPoint" />
          </mxGeometry>
        </mxCell>
        <mxCell id="8YrW1Lh8n-N_oSTnDQjS-309" value="" style="endArrow=none;html=1;rounded=0;orthogonal=0;" edge="1" parent="8YrW1Lh8n-N_oSTnDQjS-305">
          <mxGeometry width="50" height="50" relative="1" as="geometry">
            <mxPoint x="156" y="69.78672897196256" as="sourcePoint" />
            <mxPoint x="121.33333333333341" y="0.4334579439252335" as="targetPoint" />
          </mxGeometry>
        </mxCell>
        <mxCell id="8YrW1Lh8n-N_oSTnDQjS-310" value="" style="endArrow=none;html=1;rounded=0;orthogonal=0;" edge="1" parent="8YrW1Lh8n-N_oSTnDQjS-305">
          <mxGeometry width="50" height="50" relative="1" as="geometry">
            <mxPoint y="69.78672897196256" as="sourcePoint" />
            <mxPoint x="34.666666666666686" y="0.4334579439252335" as="targetPoint" />
          </mxGeometry>
        </mxCell>
        <mxCell id="8YrW1Lh8n-N_oSTnDQjS-311" value="" style="endArrow=none;html=1;rounded=0;orthogonal=0;" edge="1" parent="8YrW1Lh8n-N_oSTnDQjS-305">
          <mxGeometry width="50" height="50" relative="1" as="geometry">
            <mxPoint x="121.33333333333341" as="sourcePoint" />
            <mxPoint x="33.79999999999996" as="targetPoint" />
          </mxGeometry>
        </mxCell>
        <mxCell id="8YrW1Lh8n-N_oSTnDQjS-312" value="" style="endArrow=none;html=1;rounded=0;orthogonal=0;" edge="1" parent="8YrW1Lh8n-N_oSTnDQjS-305">
          <mxGeometry width="50" height="50" relative="1" as="geometry">
            <mxPoint x="121.33333333333341" y="139.14" as="sourcePoint" />
            <mxPoint x="34.666666666666686" y="139.14" as="targetPoint" />
          </mxGeometry>
        </mxCell>
        <mxCell id="8YrW1Lh8n-N_oSTnDQjS-313" value="" style="endArrow=none;html=1;rounded=0;orthogonal=0;" edge="1" parent="8YrW1Lh8n-N_oSTnDQjS-305">
          <mxGeometry width="50" height="50" relative="1" as="geometry">
            <mxPoint x="121.33333333333341" y="138.70654205607485" as="sourcePoint" />
            <mxPoint x="33.79999999999996" y="138.70654205607485" as="targetPoint" />
          </mxGeometry>
        </mxCell>
        <mxCell id="8YrW1Lh8n-N_oSTnDQjS-73" value="" style="group" vertex="1" connectable="0" parent="1">
          <mxGeometry x="800" y="150.5" width="180" height="160.5" as="geometry" />
        </mxCell>
        <mxCell id="8YrW1Lh8n-N_oSTnDQjS-74" value="" style="endArrow=none;html=1;rounded=0;orthogonal=0;fillColor=#1ba1e2;strokeColor=#006EAF;" edge="1" parent="8YrW1Lh8n-N_oSTnDQjS-73">
          <mxGeometry width="50" height="50" relative="1" as="geometry">
            <mxPoint x="180" y="80.5" as="sourcePoint" />
            <mxPoint x="140" y="0.5" as="targetPoint" />
          </mxGeometry>
        </mxCell>
        <mxCell id="8YrW1Lh8n-N_oSTnDQjS-75" value="" style="endArrow=none;html=1;rounded=0;orthogonal=0;fillColor=#1ba1e2;strokeColor=#006EAF;" edge="1" parent="8YrW1Lh8n-N_oSTnDQjS-73">
          <mxGeometry width="50" height="50" relative="1" as="geometry">
            <mxPoint x="40" y="160.5" as="sourcePoint" />
            <mxPoint y="80.5" as="targetPoint" />
          </mxGeometry>
        </mxCell>
        <mxCell id="8YrW1Lh8n-N_oSTnDQjS-76" value="" style="endArrow=none;html=1;rounded=0;orthogonal=0;fillColor=#1ba1e2;strokeColor=#006EAF;" edge="1" parent="8YrW1Lh8n-N_oSTnDQjS-73">
          <mxGeometry width="50" height="50" relative="1" as="geometry">
            <mxPoint x="140" y="160.5" as="sourcePoint" />
            <mxPoint x="180" y="80.5" as="targetPoint" />
          </mxGeometry>
        </mxCell>
        <mxCell id="8YrW1Lh8n-N_oSTnDQjS-77" value="" style="endArrow=none;html=1;rounded=0;orthogonal=0;fillColor=#1ba1e2;strokeColor=#006EAF;" edge="1" parent="8YrW1Lh8n-N_oSTnDQjS-73">
          <mxGeometry width="50" height="50" relative="1" as="geometry">
            <mxPoint x="180" y="80.5" as="sourcePoint" />
            <mxPoint x="140" y="0.5" as="targetPoint" />
          </mxGeometry>
        </mxCell>
        <mxCell id="8YrW1Lh8n-N_oSTnDQjS-78" value="" style="endArrow=none;html=1;rounded=0;orthogonal=0;fillColor=#1ba1e2;strokeColor=#006EAF;" edge="1" parent="8YrW1Lh8n-N_oSTnDQjS-73">
          <mxGeometry width="50" height="50" relative="1" as="geometry">
            <mxPoint y="80.5" as="sourcePoint" />
            <mxPoint x="40" y="0.5" as="targetPoint" />
          </mxGeometry>
        </mxCell>
        <mxCell id="8YrW1Lh8n-N_oSTnDQjS-79" value="" style="endArrow=none;html=1;rounded=0;orthogonal=0;fillColor=#1ba1e2;strokeColor=#006EAF;" edge="1" parent="8YrW1Lh8n-N_oSTnDQjS-73">
          <mxGeometry width="50" height="50" relative="1" as="geometry">
            <mxPoint x="140" as="sourcePoint" />
            <mxPoint x="39" as="targetPoint" />
          </mxGeometry>
        </mxCell>
        <mxCell id="8YrW1Lh8n-N_oSTnDQjS-80" value="" style="endArrow=none;html=1;rounded=0;orthogonal=0;fillColor=#1ba1e2;strokeColor=#006EAF;" edge="1" parent="8YrW1Lh8n-N_oSTnDQjS-73">
          <mxGeometry width="50" height="50" relative="1" as="geometry">
            <mxPoint x="140" y="160.5" as="sourcePoint" />
            <mxPoint x="40" y="160.5" as="targetPoint" />
          </mxGeometry>
        </mxCell>
        <mxCell id="8YrW1Lh8n-N_oSTnDQjS-81" value="" style="endArrow=none;html=1;rounded=0;orthogonal=0;fillColor=#1ba1e2;strokeColor=#006EAF;" edge="1" parent="8YrW1Lh8n-N_oSTnDQjS-73">
          <mxGeometry width="50" height="50" relative="1" as="geometry">
            <mxPoint x="140" y="160" as="sourcePoint" />
            <mxPoint x="39" y="160" as="targetPoint" />
          </mxGeometry>
        </mxCell>
        <mxCell id="8YrW1Lh8n-N_oSTnDQjS-82" value="" style="group" vertex="1" connectable="0" parent="1">
          <mxGeometry x="940" y="70" width="180" height="160.5" as="geometry" />
        </mxCell>
        <mxCell id="8YrW1Lh8n-N_oSTnDQjS-83" value="" style="endArrow=none;html=1;rounded=0;orthogonal=0;fillColor=#1ba1e2;strokeColor=#006EAF;" edge="1" parent="8YrW1Lh8n-N_oSTnDQjS-82">
          <mxGeometry width="50" height="50" relative="1" as="geometry">
            <mxPoint x="180" y="80.5" as="sourcePoint" />
            <mxPoint x="140" y="0.5" as="targetPoint" />
          </mxGeometry>
        </mxCell>
        <mxCell id="8YrW1Lh8n-N_oSTnDQjS-84" value="" style="endArrow=none;html=1;rounded=0;orthogonal=0;fillColor=#1ba1e2;strokeColor=#006EAF;" edge="1" parent="8YrW1Lh8n-N_oSTnDQjS-82">
          <mxGeometry width="50" height="50" relative="1" as="geometry">
            <mxPoint x="40" y="160.5" as="sourcePoint" />
            <mxPoint y="80.5" as="targetPoint" />
          </mxGeometry>
        </mxCell>
        <mxCell id="8YrW1Lh8n-N_oSTnDQjS-85" value="" style="endArrow=none;html=1;rounded=0;orthogonal=0;fillColor=#1ba1e2;strokeColor=#006EAF;" edge="1" parent="8YrW1Lh8n-N_oSTnDQjS-82">
          <mxGeometry width="50" height="50" relative="1" as="geometry">
            <mxPoint x="140" y="160.5" as="sourcePoint" />
            <mxPoint x="180" y="80.5" as="targetPoint" />
          </mxGeometry>
        </mxCell>
        <mxCell id="8YrW1Lh8n-N_oSTnDQjS-86" value="" style="endArrow=none;html=1;rounded=0;orthogonal=0;fillColor=#1ba1e2;strokeColor=#006EAF;" edge="1" parent="8YrW1Lh8n-N_oSTnDQjS-82">
          <mxGeometry width="50" height="50" relative="1" as="geometry">
            <mxPoint x="180" y="80.5" as="sourcePoint" />
            <mxPoint x="140" y="0.5" as="targetPoint" />
          </mxGeometry>
        </mxCell>
        <mxCell id="8YrW1Lh8n-N_oSTnDQjS-87" value="" style="endArrow=none;html=1;rounded=0;orthogonal=0;fillColor=#1ba1e2;strokeColor=#006EAF;" edge="1" parent="8YrW1Lh8n-N_oSTnDQjS-82">
          <mxGeometry width="50" height="50" relative="1" as="geometry">
            <mxPoint y="80.5" as="sourcePoint" />
            <mxPoint x="40" y="0.5" as="targetPoint" />
          </mxGeometry>
        </mxCell>
        <mxCell id="8YrW1Lh8n-N_oSTnDQjS-88" value="" style="endArrow=none;html=1;rounded=0;orthogonal=0;fillColor=#1ba1e2;strokeColor=#006EAF;" edge="1" parent="8YrW1Lh8n-N_oSTnDQjS-82">
          <mxGeometry width="50" height="50" relative="1" as="geometry">
            <mxPoint x="140" as="sourcePoint" />
            <mxPoint x="39" as="targetPoint" />
          </mxGeometry>
        </mxCell>
        <mxCell id="8YrW1Lh8n-N_oSTnDQjS-89" value="" style="endArrow=none;html=1;rounded=0;orthogonal=0;fillColor=#1ba1e2;strokeColor=#006EAF;" edge="1" parent="8YrW1Lh8n-N_oSTnDQjS-82">
          <mxGeometry width="50" height="50" relative="1" as="geometry">
            <mxPoint x="140" y="160.5" as="sourcePoint" />
            <mxPoint x="40" y="160.5" as="targetPoint" />
          </mxGeometry>
        </mxCell>
        <mxCell id="8YrW1Lh8n-N_oSTnDQjS-90" value="" style="endArrow=none;html=1;rounded=0;orthogonal=0;fillColor=#1ba1e2;strokeColor=#006EAF;" edge="1" parent="8YrW1Lh8n-N_oSTnDQjS-82">
          <mxGeometry width="50" height="50" relative="1" as="geometry">
            <mxPoint x="140" y="160" as="sourcePoint" />
            <mxPoint x="39" y="160" as="targetPoint" />
          </mxGeometry>
        </mxCell>
        <mxCell id="8YrW1Lh8n-N_oSTnDQjS-118" value="" style="group" vertex="1" connectable="0" parent="1">
          <mxGeometry x="940" y="230.5" width="180" height="160.5" as="geometry" />
        </mxCell>
        <mxCell id="8YrW1Lh8n-N_oSTnDQjS-119" value="" style="endArrow=none;html=1;rounded=0;orthogonal=0;fillColor=#1ba1e2;strokeColor=#006EAF;" edge="1" parent="8YrW1Lh8n-N_oSTnDQjS-118">
          <mxGeometry width="50" height="50" relative="1" as="geometry">
            <mxPoint x="180" y="80.5" as="sourcePoint" />
            <mxPoint x="140" y="0.5" as="targetPoint" />
          </mxGeometry>
        </mxCell>
        <mxCell id="8YrW1Lh8n-N_oSTnDQjS-120" value="" style="endArrow=none;html=1;rounded=0;orthogonal=0;fillColor=#1ba1e2;strokeColor=#006EAF;" edge="1" parent="8YrW1Lh8n-N_oSTnDQjS-118">
          <mxGeometry width="50" height="50" relative="1" as="geometry">
            <mxPoint x="40" y="160.5" as="sourcePoint" />
            <mxPoint y="80.5" as="targetPoint" />
          </mxGeometry>
        </mxCell>
        <mxCell id="8YrW1Lh8n-N_oSTnDQjS-121" value="" style="endArrow=none;html=1;rounded=0;orthogonal=0;fillColor=#1ba1e2;strokeColor=#006EAF;" edge="1" parent="8YrW1Lh8n-N_oSTnDQjS-118">
          <mxGeometry width="50" height="50" relative="1" as="geometry">
            <mxPoint x="140" y="160.5" as="sourcePoint" />
            <mxPoint x="180" y="80.5" as="targetPoint" />
          </mxGeometry>
        </mxCell>
        <mxCell id="8YrW1Lh8n-N_oSTnDQjS-122" value="" style="endArrow=none;html=1;rounded=0;orthogonal=0;fillColor=#1ba1e2;strokeColor=#006EAF;" edge="1" parent="8YrW1Lh8n-N_oSTnDQjS-118">
          <mxGeometry width="50" height="50" relative="1" as="geometry">
            <mxPoint x="180" y="80.5" as="sourcePoint" />
            <mxPoint x="140" y="0.5" as="targetPoint" />
          </mxGeometry>
        </mxCell>
        <mxCell id="8YrW1Lh8n-N_oSTnDQjS-123" value="" style="endArrow=none;html=1;rounded=0;orthogonal=0;fillColor=#1ba1e2;strokeColor=#006EAF;" edge="1" parent="8YrW1Lh8n-N_oSTnDQjS-118">
          <mxGeometry width="50" height="50" relative="1" as="geometry">
            <mxPoint y="80.5" as="sourcePoint" />
            <mxPoint x="40" y="0.5" as="targetPoint" />
          </mxGeometry>
        </mxCell>
        <mxCell id="8YrW1Lh8n-N_oSTnDQjS-124" value="" style="endArrow=none;html=1;rounded=0;orthogonal=0;fillColor=#1ba1e2;strokeColor=#006EAF;" edge="1" parent="8YrW1Lh8n-N_oSTnDQjS-118">
          <mxGeometry width="50" height="50" relative="1" as="geometry">
            <mxPoint x="140" as="sourcePoint" />
            <mxPoint x="39" as="targetPoint" />
          </mxGeometry>
        </mxCell>
        <mxCell id="8YrW1Lh8n-N_oSTnDQjS-125" value="" style="endArrow=none;html=1;rounded=0;orthogonal=0;fillColor=#1ba1e2;strokeColor=#006EAF;" edge="1" parent="8YrW1Lh8n-N_oSTnDQjS-118">
          <mxGeometry width="50" height="50" relative="1" as="geometry">
            <mxPoint x="140" y="160.5" as="sourcePoint" />
            <mxPoint x="40" y="160.5" as="targetPoint" />
          </mxGeometry>
        </mxCell>
        <mxCell id="8YrW1Lh8n-N_oSTnDQjS-126" value="" style="endArrow=none;html=1;rounded=0;orthogonal=0;fillColor=#1ba1e2;strokeColor=#006EAF;" edge="1" parent="8YrW1Lh8n-N_oSTnDQjS-118">
          <mxGeometry width="50" height="50" relative="1" as="geometry">
            <mxPoint x="140" y="160" as="sourcePoint" />
            <mxPoint x="39" y="160" as="targetPoint" />
          </mxGeometry>
        </mxCell>
        <mxCell id="8YrW1Lh8n-N_oSTnDQjS-127" value="" style="group" vertex="1" connectable="0" parent="1">
          <mxGeometry x="940" y="390.5" width="180" height="160.5" as="geometry" />
        </mxCell>
        <mxCell id="8YrW1Lh8n-N_oSTnDQjS-128" value="" style="endArrow=none;html=1;rounded=0;orthogonal=0;fillColor=#1ba1e2;strokeColor=#006EAF;" edge="1" parent="8YrW1Lh8n-N_oSTnDQjS-127">
          <mxGeometry width="50" height="50" relative="1" as="geometry">
            <mxPoint x="180" y="80.5" as="sourcePoint" />
            <mxPoint x="140" y="0.5" as="targetPoint" />
          </mxGeometry>
        </mxCell>
        <mxCell id="8YrW1Lh8n-N_oSTnDQjS-129" value="" style="endArrow=none;html=1;rounded=0;orthogonal=0;fillColor=#1ba1e2;strokeColor=#006EAF;" edge="1" parent="8YrW1Lh8n-N_oSTnDQjS-127">
          <mxGeometry width="50" height="50" relative="1" as="geometry">
            <mxPoint x="40" y="160.5" as="sourcePoint" />
            <mxPoint y="80.5" as="targetPoint" />
          </mxGeometry>
        </mxCell>
        <mxCell id="8YrW1Lh8n-N_oSTnDQjS-130" value="" style="endArrow=none;html=1;rounded=0;orthogonal=0;fillColor=#1ba1e2;strokeColor=#006EAF;" edge="1" parent="8YrW1Lh8n-N_oSTnDQjS-127">
          <mxGeometry width="50" height="50" relative="1" as="geometry">
            <mxPoint x="140" y="160.5" as="sourcePoint" />
            <mxPoint x="180" y="80.5" as="targetPoint" />
          </mxGeometry>
        </mxCell>
        <mxCell id="8YrW1Lh8n-N_oSTnDQjS-131" value="" style="endArrow=none;html=1;rounded=0;orthogonal=0;fillColor=#1ba1e2;strokeColor=#006EAF;" edge="1" parent="8YrW1Lh8n-N_oSTnDQjS-127">
          <mxGeometry width="50" height="50" relative="1" as="geometry">
            <mxPoint x="180" y="80.5" as="sourcePoint" />
            <mxPoint x="140" y="0.5" as="targetPoint" />
          </mxGeometry>
        </mxCell>
        <mxCell id="8YrW1Lh8n-N_oSTnDQjS-132" value="" style="endArrow=none;html=1;rounded=0;orthogonal=0;fillColor=#1ba1e2;strokeColor=#006EAF;" edge="1" parent="8YrW1Lh8n-N_oSTnDQjS-127">
          <mxGeometry width="50" height="50" relative="1" as="geometry">
            <mxPoint y="80.5" as="sourcePoint" />
            <mxPoint x="40" y="0.5" as="targetPoint" />
          </mxGeometry>
        </mxCell>
        <mxCell id="8YrW1Lh8n-N_oSTnDQjS-133" value="" style="endArrow=none;html=1;rounded=0;orthogonal=0;fillColor=#1ba1e2;strokeColor=#006EAF;" edge="1" parent="8YrW1Lh8n-N_oSTnDQjS-127">
          <mxGeometry width="50" height="50" relative="1" as="geometry">
            <mxPoint x="140" as="sourcePoint" />
            <mxPoint x="39" as="targetPoint" />
          </mxGeometry>
        </mxCell>
        <mxCell id="8YrW1Lh8n-N_oSTnDQjS-134" value="" style="endArrow=none;html=1;rounded=0;orthogonal=0;fillColor=#1ba1e2;strokeColor=#006EAF;" edge="1" parent="8YrW1Lh8n-N_oSTnDQjS-127">
          <mxGeometry width="50" height="50" relative="1" as="geometry">
            <mxPoint x="140" y="160.5" as="sourcePoint" />
            <mxPoint x="40" y="160.5" as="targetPoint" />
          </mxGeometry>
        </mxCell>
        <mxCell id="8YrW1Lh8n-N_oSTnDQjS-135" value="" style="endArrow=none;html=1;rounded=0;orthogonal=0;fillColor=#1ba1e2;strokeColor=#006EAF;" edge="1" parent="8YrW1Lh8n-N_oSTnDQjS-127">
          <mxGeometry width="50" height="50" relative="1" as="geometry">
            <mxPoint x="140" y="160" as="sourcePoint" />
            <mxPoint x="39" y="160" as="targetPoint" />
          </mxGeometry>
        </mxCell>
        <mxCell id="8YrW1Lh8n-N_oSTnDQjS-136" value="" style="group" vertex="1" connectable="0" parent="1">
          <mxGeometry x="800" y="310.5" width="180" height="160.5" as="geometry" />
        </mxCell>
        <mxCell id="8YrW1Lh8n-N_oSTnDQjS-137" value="" style="endArrow=none;html=1;rounded=0;orthogonal=0;fillColor=#1ba1e2;strokeColor=#006EAF;" edge="1" parent="8YrW1Lh8n-N_oSTnDQjS-136">
          <mxGeometry width="50" height="50" relative="1" as="geometry">
            <mxPoint x="180" y="80.5" as="sourcePoint" />
            <mxPoint x="140" y="0.5" as="targetPoint" />
          </mxGeometry>
        </mxCell>
        <mxCell id="8YrW1Lh8n-N_oSTnDQjS-138" value="" style="endArrow=none;html=1;rounded=0;orthogonal=0;fillColor=#1ba1e2;strokeColor=#006EAF;" edge="1" parent="8YrW1Lh8n-N_oSTnDQjS-136">
          <mxGeometry width="50" height="50" relative="1" as="geometry">
            <mxPoint x="40" y="160.5" as="sourcePoint" />
            <mxPoint y="80.5" as="targetPoint" />
          </mxGeometry>
        </mxCell>
        <mxCell id="8YrW1Lh8n-N_oSTnDQjS-139" value="" style="endArrow=none;html=1;rounded=0;orthogonal=0;fillColor=#1ba1e2;strokeColor=#006EAF;" edge="1" parent="8YrW1Lh8n-N_oSTnDQjS-136">
          <mxGeometry width="50" height="50" relative="1" as="geometry">
            <mxPoint x="140" y="160.5" as="sourcePoint" />
            <mxPoint x="180" y="80.5" as="targetPoint" />
          </mxGeometry>
        </mxCell>
        <mxCell id="8YrW1Lh8n-N_oSTnDQjS-140" value="" style="endArrow=none;html=1;rounded=0;orthogonal=0;fillColor=#1ba1e2;strokeColor=#006EAF;" edge="1" parent="8YrW1Lh8n-N_oSTnDQjS-136">
          <mxGeometry width="50" height="50" relative="1" as="geometry">
            <mxPoint x="180" y="80.5" as="sourcePoint" />
            <mxPoint x="140" y="0.5" as="targetPoint" />
          </mxGeometry>
        </mxCell>
        <mxCell id="8YrW1Lh8n-N_oSTnDQjS-141" value="" style="endArrow=none;html=1;rounded=0;orthogonal=0;fillColor=#1ba1e2;strokeColor=#006EAF;" edge="1" parent="8YrW1Lh8n-N_oSTnDQjS-136">
          <mxGeometry width="50" height="50" relative="1" as="geometry">
            <mxPoint y="80.5" as="sourcePoint" />
            <mxPoint x="40" y="0.5" as="targetPoint" />
          </mxGeometry>
        </mxCell>
        <mxCell id="8YrW1Lh8n-N_oSTnDQjS-142" value="" style="endArrow=none;html=1;rounded=0;orthogonal=0;fillColor=#1ba1e2;strokeColor=#006EAF;" edge="1" parent="8YrW1Lh8n-N_oSTnDQjS-136">
          <mxGeometry width="50" height="50" relative="1" as="geometry">
            <mxPoint x="140" as="sourcePoint" />
            <mxPoint x="39" as="targetPoint" />
          </mxGeometry>
        </mxCell>
        <mxCell id="8YrW1Lh8n-N_oSTnDQjS-143" value="" style="endArrow=none;html=1;rounded=0;orthogonal=0;fillColor=#1ba1e2;strokeColor=#006EAF;" edge="1" parent="8YrW1Lh8n-N_oSTnDQjS-136">
          <mxGeometry width="50" height="50" relative="1" as="geometry">
            <mxPoint x="140" y="160.5" as="sourcePoint" />
            <mxPoint x="40" y="160.5" as="targetPoint" />
          </mxGeometry>
        </mxCell>
        <mxCell id="8YrW1Lh8n-N_oSTnDQjS-144" value="" style="endArrow=none;html=1;rounded=0;orthogonal=0;fillColor=#1ba1e2;strokeColor=#006EAF;" edge="1" parent="8YrW1Lh8n-N_oSTnDQjS-136">
          <mxGeometry width="50" height="50" relative="1" as="geometry">
            <mxPoint x="140" y="160" as="sourcePoint" />
            <mxPoint x="39" y="160" as="targetPoint" />
          </mxGeometry>
        </mxCell>
        <mxCell id="8YrW1Lh8n-N_oSTnDQjS-145" value="" style="group" vertex="1" connectable="0" parent="1">
          <mxGeometry x="660" y="390.5" width="180" height="160.5" as="geometry" />
        </mxCell>
        <mxCell id="8YrW1Lh8n-N_oSTnDQjS-146" value="" style="endArrow=none;html=1;rounded=0;orthogonal=0;fillColor=#1ba1e2;strokeColor=#006EAF;" edge="1" parent="8YrW1Lh8n-N_oSTnDQjS-145">
          <mxGeometry width="50" height="50" relative="1" as="geometry">
            <mxPoint x="180" y="80.5" as="sourcePoint" />
            <mxPoint x="140" y="0.5" as="targetPoint" />
          </mxGeometry>
        </mxCell>
        <mxCell id="8YrW1Lh8n-N_oSTnDQjS-147" value="" style="endArrow=none;html=1;rounded=0;orthogonal=0;fillColor=#1ba1e2;strokeColor=#006EAF;" edge="1" parent="8YrW1Lh8n-N_oSTnDQjS-145">
          <mxGeometry width="50" height="50" relative="1" as="geometry">
            <mxPoint x="40" y="160.5" as="sourcePoint" />
            <mxPoint y="80.5" as="targetPoint" />
          </mxGeometry>
        </mxCell>
        <mxCell id="8YrW1Lh8n-N_oSTnDQjS-148" value="" style="endArrow=none;html=1;rounded=0;orthogonal=0;fillColor=#1ba1e2;strokeColor=#006EAF;" edge="1" parent="8YrW1Lh8n-N_oSTnDQjS-145">
          <mxGeometry width="50" height="50" relative="1" as="geometry">
            <mxPoint x="140" y="160.5" as="sourcePoint" />
            <mxPoint x="180" y="80.5" as="targetPoint" />
          </mxGeometry>
        </mxCell>
        <mxCell id="8YrW1Lh8n-N_oSTnDQjS-149" value="" style="endArrow=none;html=1;rounded=0;orthogonal=0;fillColor=#1ba1e2;strokeColor=#006EAF;" edge="1" parent="8YrW1Lh8n-N_oSTnDQjS-145">
          <mxGeometry width="50" height="50" relative="1" as="geometry">
            <mxPoint x="180" y="80.5" as="sourcePoint" />
            <mxPoint x="140" y="0.5" as="targetPoint" />
          </mxGeometry>
        </mxCell>
        <mxCell id="8YrW1Lh8n-N_oSTnDQjS-150" value="" style="endArrow=none;html=1;rounded=0;orthogonal=0;fillColor=#1ba1e2;strokeColor=#006EAF;" edge="1" parent="8YrW1Lh8n-N_oSTnDQjS-145">
          <mxGeometry width="50" height="50" relative="1" as="geometry">
            <mxPoint y="80.5" as="sourcePoint" />
            <mxPoint x="40" y="0.5" as="targetPoint" />
          </mxGeometry>
        </mxCell>
        <mxCell id="8YrW1Lh8n-N_oSTnDQjS-151" value="" style="endArrow=none;html=1;rounded=0;orthogonal=0;fillColor=#1ba1e2;strokeColor=#006EAF;" edge="1" parent="8YrW1Lh8n-N_oSTnDQjS-145">
          <mxGeometry width="50" height="50" relative="1" as="geometry">
            <mxPoint x="140" as="sourcePoint" />
            <mxPoint x="39" as="targetPoint" />
          </mxGeometry>
        </mxCell>
        <mxCell id="8YrW1Lh8n-N_oSTnDQjS-152" value="" style="endArrow=none;html=1;rounded=0;orthogonal=0;fillColor=#1ba1e2;strokeColor=#006EAF;" edge="1" parent="8YrW1Lh8n-N_oSTnDQjS-145">
          <mxGeometry width="50" height="50" relative="1" as="geometry">
            <mxPoint x="140" y="160.5" as="sourcePoint" />
            <mxPoint x="40" y="160.5" as="targetPoint" />
          </mxGeometry>
        </mxCell>
        <mxCell id="8YrW1Lh8n-N_oSTnDQjS-153" value="" style="endArrow=none;html=1;rounded=0;orthogonal=0;fillColor=#1ba1e2;strokeColor=#006EAF;" edge="1" parent="8YrW1Lh8n-N_oSTnDQjS-145">
          <mxGeometry width="50" height="50" relative="1" as="geometry">
            <mxPoint x="140" y="160" as="sourcePoint" />
            <mxPoint x="39" y="160" as="targetPoint" />
          </mxGeometry>
        </mxCell>
        <mxCell id="8YrW1Lh8n-N_oSTnDQjS-332" value="" style="group" vertex="1" connectable="0" parent="1">
          <mxGeometry x="240" y="470" width="180" height="160.5" as="geometry" />
        </mxCell>
        <mxCell id="8YrW1Lh8n-N_oSTnDQjS-333" value="" style="endArrow=none;html=1;rounded=0;orthogonal=0;fillColor=#1ba1e2;strokeColor=#006EAF;" edge="1" parent="8YrW1Lh8n-N_oSTnDQjS-332">
          <mxGeometry width="50" height="50" relative="1" as="geometry">
            <mxPoint x="180" y="80.5" as="sourcePoint" />
            <mxPoint x="140" y="0.5" as="targetPoint" />
          </mxGeometry>
        </mxCell>
        <mxCell id="8YrW1Lh8n-N_oSTnDQjS-334" value="" style="endArrow=none;html=1;rounded=0;orthogonal=0;fillColor=#1ba1e2;strokeColor=#006EAF;" edge="1" parent="8YrW1Lh8n-N_oSTnDQjS-332">
          <mxGeometry width="50" height="50" relative="1" as="geometry">
            <mxPoint x="40" y="160.5" as="sourcePoint" />
            <mxPoint y="80.5" as="targetPoint" />
          </mxGeometry>
        </mxCell>
        <mxCell id="8YrW1Lh8n-N_oSTnDQjS-335" value="" style="endArrow=none;html=1;rounded=0;orthogonal=0;fillColor=#1ba1e2;strokeColor=#006EAF;" edge="1" parent="8YrW1Lh8n-N_oSTnDQjS-332">
          <mxGeometry width="50" height="50" relative="1" as="geometry">
            <mxPoint x="140" y="160.5" as="sourcePoint" />
            <mxPoint x="180" y="80.5" as="targetPoint" />
          </mxGeometry>
        </mxCell>
        <mxCell id="8YrW1Lh8n-N_oSTnDQjS-336" value="" style="endArrow=none;html=1;rounded=0;orthogonal=0;fillColor=#1ba1e2;strokeColor=#006EAF;" edge="1" parent="8YrW1Lh8n-N_oSTnDQjS-332">
          <mxGeometry width="50" height="50" relative="1" as="geometry">
            <mxPoint x="180" y="80.5" as="sourcePoint" />
            <mxPoint x="140" y="0.5" as="targetPoint" />
          </mxGeometry>
        </mxCell>
        <mxCell id="8YrW1Lh8n-N_oSTnDQjS-337" value="" style="endArrow=none;html=1;rounded=0;orthogonal=0;fillColor=#1ba1e2;strokeColor=#006EAF;" edge="1" parent="8YrW1Lh8n-N_oSTnDQjS-332">
          <mxGeometry width="50" height="50" relative="1" as="geometry">
            <mxPoint y="80.5" as="sourcePoint" />
            <mxPoint x="40" y="0.5" as="targetPoint" />
          </mxGeometry>
        </mxCell>
        <mxCell id="8YrW1Lh8n-N_oSTnDQjS-338" value="" style="endArrow=none;html=1;rounded=0;orthogonal=0;fillColor=#1ba1e2;strokeColor=#006EAF;" edge="1" parent="8YrW1Lh8n-N_oSTnDQjS-332">
          <mxGeometry width="50" height="50" relative="1" as="geometry">
            <mxPoint x="140" as="sourcePoint" />
            <mxPoint x="39" as="targetPoint" />
          </mxGeometry>
        </mxCell>
        <mxCell id="8YrW1Lh8n-N_oSTnDQjS-339" value="" style="endArrow=none;html=1;rounded=0;orthogonal=0;fillColor=#1ba1e2;strokeColor=#006EAF;" edge="1" parent="8YrW1Lh8n-N_oSTnDQjS-332">
          <mxGeometry width="50" height="50" relative="1" as="geometry">
            <mxPoint x="140" y="160.5" as="sourcePoint" />
            <mxPoint x="40" y="160.5" as="targetPoint" />
          </mxGeometry>
        </mxCell>
        <mxCell id="8YrW1Lh8n-N_oSTnDQjS-340" value="" style="endArrow=none;html=1;rounded=0;orthogonal=0;fillColor=#1ba1e2;strokeColor=#006EAF;" edge="1" parent="8YrW1Lh8n-N_oSTnDQjS-332">
          <mxGeometry width="50" height="50" relative="1" as="geometry">
            <mxPoint x="140" y="160" as="sourcePoint" />
            <mxPoint x="39" y="160" as="targetPoint" />
          </mxGeometry>
        </mxCell>
        <mxCell id="8YrW1Lh8n-N_oSTnDQjS-341" value="" style="group;aspect=fixed;" vertex="1" connectable="0" parent="1">
          <mxGeometry x="210" y="509.99999999999994" width="156" height="139.14" as="geometry" />
        </mxCell>
        <mxCell id="8YrW1Lh8n-N_oSTnDQjS-342" value="" style="endArrow=none;html=1;rounded=0;orthogonal=0;" edge="1" parent="8YrW1Lh8n-N_oSTnDQjS-341">
          <mxGeometry width="50" height="50" relative="1" as="geometry">
            <mxPoint x="156" y="69.78672897196256" as="sourcePoint" />
            <mxPoint x="121.33333333333341" y="0.4334579439252335" as="targetPoint" />
          </mxGeometry>
        </mxCell>
        <mxCell id="8YrW1Lh8n-N_oSTnDQjS-343" value="" style="endArrow=none;html=1;rounded=0;orthogonal=0;" edge="1" parent="8YrW1Lh8n-N_oSTnDQjS-341">
          <mxGeometry width="50" height="50" relative="1" as="geometry">
            <mxPoint x="34.666666666666686" y="139.14" as="sourcePoint" />
            <mxPoint y="69.78672897196256" as="targetPoint" />
          </mxGeometry>
        </mxCell>
        <mxCell id="8YrW1Lh8n-N_oSTnDQjS-344" value="" style="endArrow=none;html=1;rounded=0;orthogonal=0;" edge="1" parent="8YrW1Lh8n-N_oSTnDQjS-341">
          <mxGeometry width="50" height="50" relative="1" as="geometry">
            <mxPoint x="121.33333333333341" y="139.14" as="sourcePoint" />
            <mxPoint x="156" y="69.78672897196256" as="targetPoint" />
          </mxGeometry>
        </mxCell>
        <mxCell id="8YrW1Lh8n-N_oSTnDQjS-345" value="" style="endArrow=none;html=1;rounded=0;orthogonal=0;" edge="1" parent="8YrW1Lh8n-N_oSTnDQjS-341">
          <mxGeometry width="50" height="50" relative="1" as="geometry">
            <mxPoint x="156" y="69.78672897196256" as="sourcePoint" />
            <mxPoint x="121.33333333333341" y="0.4334579439252335" as="targetPoint" />
          </mxGeometry>
        </mxCell>
        <mxCell id="8YrW1Lh8n-N_oSTnDQjS-346" value="" style="endArrow=none;html=1;rounded=0;orthogonal=0;" edge="1" parent="8YrW1Lh8n-N_oSTnDQjS-341">
          <mxGeometry width="50" height="50" relative="1" as="geometry">
            <mxPoint y="69.78672897196256" as="sourcePoint" />
            <mxPoint x="34.666666666666686" y="0.4334579439252335" as="targetPoint" />
          </mxGeometry>
        </mxCell>
        <mxCell id="8YrW1Lh8n-N_oSTnDQjS-347" value="" style="endArrow=none;html=1;rounded=0;orthogonal=0;" edge="1" parent="8YrW1Lh8n-N_oSTnDQjS-341">
          <mxGeometry width="50" height="50" relative="1" as="geometry">
            <mxPoint x="121.33333333333341" as="sourcePoint" />
            <mxPoint x="33.79999999999996" as="targetPoint" />
          </mxGeometry>
        </mxCell>
        <mxCell id="8YrW1Lh8n-N_oSTnDQjS-348" value="" style="endArrow=none;html=1;rounded=0;orthogonal=0;" edge="1" parent="8YrW1Lh8n-N_oSTnDQjS-341">
          <mxGeometry width="50" height="50" relative="1" as="geometry">
            <mxPoint x="121.33333333333341" y="139.14" as="sourcePoint" />
            <mxPoint x="34.666666666666686" y="139.14" as="targetPoint" />
          </mxGeometry>
        </mxCell>
        <mxCell id="8YrW1Lh8n-N_oSTnDQjS-349" value="" style="endArrow=none;html=1;rounded=0;orthogonal=0;" edge="1" parent="8YrW1Lh8n-N_oSTnDQjS-341">
          <mxGeometry width="50" height="50" relative="1" as="geometry">
            <mxPoint x="121.33333333333341" y="138.70654205607485" as="sourcePoint" />
            <mxPoint x="33.79999999999996" y="138.70654205607485" as="targetPoint" />
          </mxGeometry>
        </mxCell>
      </root>
    </mxGraphModel>
  </diagram>
</mxfile>
